<svg width="16" height="16" viewBox="0 0 16 16" fill="none" xmlns="http://www.w3.org/2000/svg">
<path d="M11.5122 7.47229H7.45898V11.5255H11.5122V7.47229Z" fill="#4338CA"/>
<path fill-rule="evenodd" clip-rule="evenodd" d="M4.48778 11.5078V13.2373C4.48778 13.5654 4.62082 13.8936 4.86029 14.1331C5.09976 14.3725 5.41905 14.5056 5.75608 14.5056H7.48557V15.49C7.48557 15.6231 7.53878 15.7561 7.63634 15.8537C7.83146 16.0488 8.16849 16.0488 8.36361 15.8537C8.46117 15.7561 8.51439 15.6319 8.51439 15.49V14.5056H10.4745V15.49C10.4745 15.6231 10.5277 15.7561 10.6253 15.8537C10.8204 16.0488 11.1574 16.0488 11.3525 15.8537C11.4501 15.7561 11.5033 15.6319 11.5033 15.49V14.5056H13.2328C13.561 14.5056 13.8891 14.3725 14.1286 14.1331C14.368 13.8936 14.5011 13.5743 14.5011 13.2373V11.5078H15.4856C15.6186 11.5078 15.7516 11.4546 15.8492 11.357C15.9468 11.2594 16 11.1264 16 10.9934C16 10.8603 15.9468 10.7273 15.8492 10.6297C15.7516 10.5322 15.6275 10.479 15.4856 10.479H14.5011V8.51887H15.4856C15.6186 8.51887 15.7516 8.46565 15.8492 8.36809C15.9468 8.27053 16 8.13749 16 8.00445C16 7.87142 15.9468 7.73838 15.8492 7.64082C15.7516 7.54326 15.6186 7.49004 15.4856 7.49004H14.5011V5.76055C14.5011 5.43239 14.368 5.10423 14.1286 4.86476C13.8891 4.6253 13.5698 4.49226 13.2328 4.49226H8.51439V3.50778C8.51439 3.37474 8.46117 3.24171 8.36361 3.14414C8.16849 2.94902 7.83146 2.94902 7.63634 3.14414C7.53878 3.24171 7.48557 3.36587 7.48557 3.50778V4.49226H5.75608C5.41905 4.49226 5.09976 4.6253 4.86029 4.86476C4.62969 5.09536 4.48778 5.42352 4.48778 5.76055V7.49004H3.5033C3.37027 7.49004 3.23723 7.54326 3.13967 7.64082C3.04211 7.73838 2.98889 7.87142 2.98889 8.00445C2.98889 8.13749 3.04211 8.27053 3.13967 8.36809C3.23723 8.46565 3.37027 8.51887 3.5033 8.51887H4.48778V11.5078ZM13.4634 13.4679H5.51661V5.52108H13.4634V13.4679Z" fill="#4338CA"/>
<path fill-rule="evenodd" clip-rule="evenodd" d="M4.49667 10.4789H2.53659V2.53215H10.4834V4.49224H11.5122V2.76275C11.5122 2.43459 11.3792 2.10643 11.1397 1.86696C10.9091 1.63636 10.5809 1.49446 10.2439 1.49446H8.51441V0.509978C8.51441 0.37694 8.4612 0.243902 8.36364 0.146341C8.16851 -0.0487805 7.83148 -0.0487805 7.63636 0.146341C7.5388 0.243902 7.48559 0.368071 7.48559 0.509978V1.49446H5.5255V0.509978C5.5255 0.37694 5.47228 0.243902 5.37472 0.146341C5.1796 -0.0487805 4.84257 -0.0487805 4.64745 0.146341C4.54989 0.243902 4.49667 0.368071 4.49667 0.509978V1.49446H2.76718C2.43016 1.49446 2.11086 1.62749 1.8714 1.86696C1.6408 2.09756 1.49889 2.42572 1.49889 2.76275V4.49224H0.514412C0.381375 4.49224 0.248337 4.54545 0.150776 4.64301C0.0532151 4.74058 0 4.87361 0 5.00665C0 5.13969 0.0532151 5.27273 0.150776 5.37029C0.248337 5.46785 0.381375 5.52106 0.514412 5.52106H1.49889V7.48115H0.514412C0.381375 7.48115 0.248337 7.53437 0.150776 7.63193C0.0532151 7.72949 0 7.85366 0 7.99556C0 8.13747 0.0532151 8.26164 0.150776 8.3592C0.248337 8.45676 0.381375 8.50998 0.514412 8.50998H1.49889V10.2395C1.49889 10.5676 1.63193 10.8958 1.8714 11.1353C2.11086 11.3747 2.43016 11.5078 2.76718 11.5078H4.4878V10.4789H4.49667Z" fill="#4338CA"/>
</svg>
