<svg xmlns="http://www.w3.org/2000/svg" width="24" height="24" fill="none" viewBox="0 0 24 24">
  <rect width="24" height="24" fill="#E5E7EB" rx="4"/>
  <path fill="#fff" d="M15 9H9v6h6V9Z"/>
  <path fill="#fff" fill-rule="evenodd" d="M9 4a1 1 0 0 1 2 0v1h2V4a1 1 0 0 1 2 0v1h2a2 2 0 0 1 2 2v2h1a1 1 0 1 1 0 2h-1v2h1a1 1 0 0 1 0 2h-1v2a2 2 0 0 1-2 2h-2v1a1 1 0 0 1-2 0v-1h-2v1a1 1 0 0 1-2 0v-1H7a2 2 0 0 1-2-2v-2H4a1 1 0 0 1 0-2h1v-2H4a1 1 0 0 1 0-2h1V7a2 2 0 0 1 2-2h2V4ZM7 7h10v10H7V7Z" clip-rule="evenodd"/>
</svg>
