<?xml version="1.0" encoding="utf-8"?>
<!-- Generator: Adobe Illustrator 27.0.1, SVG Export Plug-In . SVG Version: 6.00 Build 0)  -->
<svg version="1.1"
	 id="Layer_1" xmlns:osb="http://www.openswatchbook.org/uri/2009/osb" xmlns:cc="http://creativecommons.org/ns#" xmlns:dc="http://purl.org/dc/elements/1.1/" xmlns:rdf="http://www.w3.org/1999/02/22-rdf-syntax-ns#"
	 xmlns="http://www.w3.org/2000/svg" xmlns:xlink="http://www.w3.org/1999/xlink" x="0px" y="0px" viewBox="0 0 17.5 20.1"
	 style="enable-background:new 0 0 17.5 20.1;" xml:space="preserve">
<style type="text/css">
	.st0{opacity:0.98;fill:#8F0000;enable-background:new    ;}
	.st1{fill-rule:evenodd;clip-rule:evenodd;fill-opacity:0.199;}
	.st2{opacity:0.98;fill:#FFFFFF;enable-background:new    ;}
</style>
<g transform="translate(0 -405.36)">
	<g transform="translate(.000014172 .000022107)">
		<path class="st0" d="M8.7,405.4l8.7,5v10.1l-8.7,5l-8.7-5l0-10.1L8.7,405.4z"/>
		<path class="st1" d="M8.7,424.5L7.8,424L1,416.6l0.1-0.4h3.4l0.6-2l0.5,0.8l1.8-2l1.5-0.4l0.1,1l1,0.1l1,0l2.7,0.1l0.5-2.2
			l2.3,2.7l-0.1,2l-3.6,0l-0.1,1.9l3.7,0.4l0,1.3L8.7,424.5z"/>
		<path class="st2" d="M0.7,416.6v3.4c0,0.1,0,0.1,0.1,0.1l7.9,4.5c0,0,0.1,0,0.2,0l7.9-4.5c0,0,0.1-0.1,0.1-0.1v-1.1v-0.7v-1.6
			v-0.7v-5c0-0.1,0-0.1-0.1-0.1l-7.9-4.5c0,0,0,0-0.1,0c0,0-0.1,0-0.1,0l-7.9,4.5c0,0-0.1,0.1-0.1,0.1v2.8v0.6v1.6V416.6z
			 M8.7,406.5l7.7,4.5v4.9h-3.1c-0.5,0-1,0.5-1,1v0.1c-1.9,0-2.4-0.5-3.1-1.1c-0.6-0.5-1.3-1.1-2.7-1.3c0.3-0.3,0.4-0.6,0.6-0.8
			c0.2-0.3,0.3-0.5,0.5-0.7c0.2-0.1,0.5-0.2,0.9-0.2v0.1c0,0.5,0.4,1,1,1h4c0.5,0,1-0.4,1-1v-1c0-0.5-0.5-1-1-1l-4,0
			c-0.5,0-1,0.4-1,1v0.2c-0.5,0-0.9,0.1-1.2,0.3c-0.4,0.3-0.6,0.6-0.7,0.9c-0.2,0.3-0.3,0.6-0.5,0.7c-0.2,0.2-0.4,0.3-0.8,0.3
			c0-0.5-0.5-0.9-1-0.9H1V411L8.7,406.5z M9.4,411.8h4c0.2,0,0.3,0.1,0.3,0.3v1c0,0.2-0.1,0.3-0.3,0.3h-4c-0.2,0-0.3-0.1-0.3-0.3v-1
			C9.1,411.9,9.2,411.8,9.4,411.8L9.4,411.8z M1,414.3h3.2c0.2,0,0.3,0.2,0.3,0.3v1c0,0.2-0.1,0.3-0.3,0.3H1L1,414.3z M5.2,415.2
			c2.2,0,2.9,0.6,3.6,1.2c0.7,0.6,1.5,1.2,3.6,1.3v0.2c0,0.5,0.5,1,1,1h3.1v1l-7.7,4.5L1,419.9v-3.3h3.2c0.5,0,1-0.4,1-1L5.2,415.2z
			 M13.4,416.6h3.1v1.6h-3.1c-0.2,0-0.3-0.1-0.3-0.3v-1C13,416.7,13.2,416.6,13.4,416.6L13.4,416.6z"/>
	</g>
</g>
</svg>
