<svg enable-background="new 0 0 17.5 20.1" viewBox="0 0 17.5 20.1" xmlns="http://www.w3.org/2000/svg"><g transform="translate(.000014 -405.359978)"><path d="m8.7 405.4 8.7 5v10.1l-8.7 5-8.7-5v-10.1z" fill="#8f0000" opacity=".98"/><path clip-rule="evenodd" d="m8.7 424.5-.9-.5-6.8-7.4.1-.4h3.4l.6-2 .5.8 1.8-2 1.5-.4.1 1 1 .1h1l2.7.1.5-2.2 2.3 2.7-.1 2h-3.6l-.1 1.9 3.7.4v1.3z" fill-opacity=".199" fill-rule="evenodd"/><path d="m.7 416.6v3.4c0 .1 0 .1.1.1l7.9 4.5h.2l7.9-4.5s.1-.1.1-.1v-1.1-.7-1.6-.7-5c0-.1 0-.1-.1-.1l-7.9-4.5s0 0-.1 0h-.1l-7.9 4.5s-.1.1-.1.1v2.8.6 1.6.7zm8-10.1 7.7 4.5v4.9h-3.1c-.5 0-1 .5-1 1v.1c-1.9 0-2.4-.5-3.1-1.1-.6-.5-1.3-1.1-2.7-1.3.3-.3.4-.6.6-.8.2-.3.3-.5.5-.7.2-.1.5-.2.9-.2v.1c0 .5.4 1 1 1h4c.5 0 1-.4 1-1v-1c0-.5-.5-1-1-1h-4c-.5 0-1 .4-1 1v.2c-.5 0-.9.1-1.2.3-.4.3-.6.6-.7.9-.2.3-.3.6-.5.7-.2.2-.4.3-.8.3 0-.5-.5-.9-1-.9h-3.3v-2.5zm.7 5.3h4c.2 0 .3.1.3.3v1c0 .2-.1.3-.3.3h-4c-.2 0-.3-.1-.3-.3v-1c0-.2.1-.3.3-.3zm-8.4 2.5h3.2c.2 0 .3.2.3.3v1c0 .2-.1.3-.3.3h-3.2zm4.2.9c2.2 0 2.9.6 3.6 1.2s1.5 1.2 3.6 1.3v.2c0 .5.5 1 1 1h3.1v1l-7.7 4.5-7.8-4.5v-3.3h3.2c.5 0 1-.4 1-1zm8.2 1.4h3.1v1.6h-3.1c-.2 0-.3-.1-.3-.3v-1c-.1-.2.1-.3.3-.3z" fill="#fff" opacity=".98"/></g></svg>