<svg xmlns="http://www.w3.org/2000/svg" width="24" height="24" fill="none" viewBox="0 0 24 24">
  <rect width="24" height="24" fill="#8F0000" rx="4"/>
  <g clip-path="url(#a)">
    <path fill="#fff" d="M0 12v-1.647c5.09 0 5.81-.9 6.44-1.695.72-.9 1.46-1.6 3.88-1.6v1.648c-1.76 0-2.04.354-2.51.948C6.79 10.937 5.5 12 0 12Z"/>
    <path fill="#fff" d="M8.6 16.941c-2.9 0-3.47-1.513-3.88-2.614C4.25 13.072 3.85 12 0 12v-1.647c4.67 0 5.67 1.618 6.34 3.419.38 1.015.57 1.522 2.26 1.522v1.647Z"/>
    <path fill="#fff" d="M16.78 19H9.9c-.95 0-1.72-.737-1.72-1.647v-2.47c0-.91.77-1.648 1.72-1.648h6.88c.95 0 1.72.738 1.72 1.647v2.47c0 .91-.77 1.648-1.72 1.648Zm0-4.118H9.9v2.47h6.88v-2.47Zm1.5-4.117H11.4c-.95 0-1.72-.738-1.72-1.647v-2.47c0-.91.77-1.648 1.72-1.648h6.88c.95 0 1.72.737 1.72 1.647v2.47c0 .91-.77 1.648-1.72 1.648Zm0-4.118H11.4v2.47h6.88v-2.47Z"/>
  </g>
  <defs>
    <clipPath id="a">
      <path fill="#fff" d="M0 5h20v14H0z"/>
    </clipPath>
  </defs>
</svg>
