<svg viewBox="0 0 20 14.62" xmlns="http://www.w3.org/2000/svg"><g fill="#6b7280"><path d="m0 7.31v-1.72c5.09 0 5.81-.94 6.44-1.77.72-.94 1.46-1.67 3.88-1.67v1.72c-1.76 0-2.04.37-2.51.99-1.02 1.34-2.31 2.45-7.81 2.45z"/><path d="m8.6 12.47c-2.9 0-3.47-1.58-3.88-2.73-.47-1.31-.87-2.43-4.72-2.43v-1.72c4.67 0 5.67 1.69 6.34 3.57.38 1.06.57 1.59 2.26 1.59z"/><path d="m16.78 14.62h-6.88c-.95 0-1.72-.77-1.72-1.72v-2.58c0-.95.77-1.72 1.72-1.72h6.88c.95 0 1.72.77 1.72 1.72v2.58c0 .95-.77 1.72-1.72 1.72zm0-4.3h-6.88v2.58h6.88z"/><path d="m18.28 6.02h-6.88c-.95 0-1.72-.77-1.72-1.72v-2.58c0-.95.77-1.72 1.72-1.72h6.88c.95 0 1.72.77 1.72 1.72v2.58c0 .95-.77 1.72-1.72 1.72zm0-4.3h-6.88v2.58h6.88z"/></g></svg>