<svg role="img" viewBox="0 0 760 320" xmlns="http://www.w3.org/2000/svg" style="width:100%;height:auto;display:block"><title>A link call sharing one pool between two callers on the left, and a subflow giving each instance its own configuration on the right.</title><text x="46" y="28" text-anchor="start" font-family="Heebo,Helvetica,Arial,sans-serif" font-size="11" font-weight="700" letter-spacing="0.6" fill="#9ca3af">ONE CONFIG, USE LINK CALL. PER-INSTANCE CONFIG, USE A SUBFLOW</text><rect x="30" y="52" width="700" height="252" rx="14" fill="#f8fbff" stroke="#5048e5" stroke-width="2"/><rect x="46" y="39" width="141" height="26" rx="8" fill="#eef2ff" stroke="#5048e5" stroke-width="2"/><text x="116.5" y="56" text-anchor="middle" font-family="Heebo,Helvetica,Arial,sans-serif" font-size="12" font-weight="700" fill="#1f2937">Node-RED</text><text x="716" y="72" text-anchor="end" font-family="Heebo,Helvetica,Arial,sans-serif" font-size="11" fill="#1f2937" opacity="0.55">(runtime)</text><line x1="380" y1="80" x2="380" y2="288" stroke="#e5e7eb" stroke-width="1.5"/><text x="200" y="104" text-anchor="middle" font-family="Heebo,Helvetica,Arial,sans-serif" font-size="12" font-weight="700" fill="#5048e5">LINK CALL</text><text x="200" y="120" text-anchor="middle" font-family="Heebo,Helvetica,Arial,sans-serif" font-size="11" fill="#9ca3af">one shared config</text><rect x="60" y="140" width="130" height="46" rx="9" fill="#ffffff" stroke="#d1d5db" stroke-width="2"/><text x="125" y="167" text-anchor="middle" font-family="Heebo,Helvetica,Arial,sans-serif" font-size="13" font-weight="700" fill="#374151">caller A</text><rect x="60" y="210" width="130" height="46" rx="9" fill="#ffffff" stroke="#d1d5db" stroke-width="2"/><text x="125" y="237" text-anchor="middle" font-family="Heebo,Helvetica,Arial,sans-serif" font-size="13" font-weight="700" fill="#374151">caller B</text><path d="M190,163 C220,163 220,193 250,193" fill="none" stroke="#9ca3af" stroke-width="2.2"/><polygon points="241,188 250,193 241,198" fill="#9ca3af"/><path d="M190,233 C220,233 220,207 250,207" fill="none" stroke="#9ca3af" stroke-width="2.2"/><polygon points="241,202 250,207 241,212" fill="#9ca3af"/><rect x="250" y="177" width="100" height="52" rx="9" fill="#e0f5f6" stroke="#0f5b60" stroke-width="2"/><text x="300" y="207" text-anchor="middle" font-family="Heebo,Helvetica,Arial,sans-serif" font-size="13" font-weight="700" fill="#374151">pool</text><text x="555" y="104" text-anchor="middle" font-family="Heebo,Helvetica,Arial,sans-serif" font-size="12" font-weight="700" fill="#5048e5">SUBFLOW</text><text x="555" y="120" text-anchor="middle" font-family="Heebo,Helvetica,Arial,sans-serif" font-size="11" fill="#9ca3af">config per instance</text><rect x="430" y="140" width="250" height="46" rx="9" fill="#ffffff" stroke="#5048e5" stroke-width="2"/><text x="555" y="167" text-anchor="middle" font-family="Heebo,Helvetica,Arial,sans-serif" font-size="13" font-weight="700" fill="#374151">instance 1, config A</text><rect x="430" y="210" width="250" height="46" rx="9" fill="#ffffff" stroke="#5048e5" stroke-width="2"/><text x="555" y="237" text-anchor="middle" font-family="Heebo,Helvetica,Arial,sans-serif" font-size="13" font-weight="700" fill="#374151">instance 2, config B</text></svg>
