<svg viewBox="0 0 830 250" xmlns="http://www.w3.org/2000/svg" style="width:100%;height:auto;display:block" role="img"><title>Node-RED buffering and batching PLC data, sending a live minimal set to an MQTT broker and batched history to a time-series SQL database.</title><text x="40" y="24" text-anchor="start" font-family="Heebo,Helvetica,Arial,sans-serif" font-size="11" font-weight="700" letter-spacing="0.6" fill="#9ca3af">TELEMETRY TO HISTORY, CONTROL STAYS FAST</text><rect x="30" y="112" width="150" height="76" rx="11" fill="#f3f4f6" stroke="#9ca3af" stroke-width="2.5"/><text x="105" y="149" text-anchor="middle" font-family="Heebo,Helvetica,Arial,sans-serif" font-size="15" font-weight="700" fill="#374151">PLC</text><text x="105" y="167" text-anchor="middle" font-family="Heebo,Helvetica,Arial,sans-serif" font-size="11" fill="#6b7280">buffered</text><line x1="180" y1="150" x2="214" y2="150" stroke="#9ca3af" stroke-width="2.2"/><polygon points="205.0,155.0 214,150 205.0,145.0" fill="#9ca3af"/><rect x="216" y="110" width="220" height="80" rx="11" fill="#f3f4f6" stroke="#374151" stroke-width="2.5"/><text x="326" y="149" text-anchor="middle" font-family="Heebo,Helvetica,Arial,sans-serif" font-size="15" font-weight="700" fill="#1f2937">Node-RED</text><text x="326" y="167" text-anchor="middle" font-family="Heebo,Helvetica,Arial,sans-serif" font-size="11" fill="#6b7280">(edge device)</text><rect x="262" y="99" width="128" height="22" rx="11" fill="#ffffff" stroke="#6b7280" stroke-width="1.4"/><text x="326" y="114" text-anchor="middle" font-family="Heebo,Helvetica,Arial,sans-serif" font-size="11" font-weight="700" fill="#6b7280">buffer + batch</text><path d="M436,138 C492,138 492,78 548,78" fill="none" stroke="#9ca3af" stroke-width="2.2"/><polygon points="539,73 548,78 539,83" fill="#9ca3af"/><rect x="436.6" y="94" width="110.9" height="15" fill="#f8fbff" opacity="0.92"/><text x="492" y="104" text-anchor="middle" font-family="Heebo,Helvetica,Arial,sans-serif" font-size="11" fill="#6b7280">live, minimal set</text><rect x="548" y="52" width="222" height="60" rx="11" fill="#e0f5f6" stroke="#50c3c9" stroke-width="2.5"/><text x="659" y="81" text-anchor="middle" font-family="Heebo,Helvetica,Arial,sans-serif" font-size="15" font-weight="700" fill="#0f5b60">Broker</text><text x="659" y="99" text-anchor="middle" font-family="Heebo,Helvetica,Arial,sans-serif" font-size="11" fill="#0f5b60" opacity="0.72">(MQTT)</text><line x1="436" y1="172" x2="560" y2="172" stroke="#9ca3af" stroke-width="2.2"/><polygon points="551.0,177.0 560,172 551.0,167.0" fill="#9ca3af"/><rect x="445.6" y="152" width="104.8" height="15" fill="#f8fbff" opacity="0.92"/><text x="498" y="162" text-anchor="middle" font-family="Heebo,Helvetica,Arial,sans-serif" font-size="11" fill="#6b7280">history, batched</text><path d="M560,150 a100,11 0 0 1 200,0 v54 a100,11 0 0 1 -200,0 z" fill="#dcfce7" stroke="#16a34a" stroke-width="2.5"/><path d="M560,150 a100,11 0 0 0 200,0" fill="none" stroke="#16a34a" stroke-width="2.5"/><text x="660" y="179" text-anchor="middle" font-family="Heebo,Helvetica,Arial,sans-serif" font-size="15" font-weight="700" fill="#14532d">SQL database</text><text x="660" y="196" text-anchor="middle" font-family="Heebo,Helvetica,Arial,sans-serif" font-size="11" fill="#14532d" opacity="0.72">(time-series)</text></svg>
