<svg width="146" height="28" viewBox="0 0 146 28" fill="none" xmlns="http://www.w3.org/2000/svg">
<g clip-path="url(#clip0_4451_8342)">
<path d="M43.2002 4.1001H34.6002C34.0002 4.1001 33.5002 4.3001 33.2002 4.6001C32.8002 5.0001 32.7002 5.4001 32.7002 6.0001V12.5001V14.9001V20.7001C32.7002 21.3001 32.9002 21.7001 33.2002 22.0001C33.5002 22.3001 34.0002 22.4001 34.7002 22.4001C35.0002 22.4001 35.4002 22.4001 35.7002 22.3001C36.0002 22.3001 36.2002 22.2001 36.4002 22.2001V15.1001H41.3002C41.7002 15.1001 42.0002 15.0001 42.3002 14.7001C42.5002 14.4001 42.7002 14.1001 42.7002 13.6001C42.7002 13.3001 42.7002 13.0001 42.6002 12.8001C42.5002 12.6001 42.4002 12.4001 42.3002 12.2001H36.5002V7.1001H42.4002C42.8002 7.1001 43.1002 7.0001 43.4002 6.7001C43.6002 6.4001 43.8002 6.0001 43.8002 5.5001C43.8002 5.2001 43.8002 4.9001 43.7002 4.7001C43.4002 4.4001 43.3002 4.3001 43.2002 4.1001Z" fill="#9CA3AF"/>
<path d="M47.6 4.1001C47.3 4.1001 47 4.1001 46.7 4.2001C46.4 4.3001 46.2 4.3001 46 4.3001V14.3001V16.1001V20.6001C46 21.2001 46.2 21.6001 46.5 21.9001C46.8 22.1001 47.3 22.3001 48 22.3001C48.4 22.3001 48.7 22.3001 49 22.2001C49.3 22.2001 49.5 22.1001 49.7 22.0001V16.3001V14.5001V5.8001C49.7 5.2001 49.5 4.8001 49.2 4.5001C48.7 4.2001 48.2 4.1001 47.6 4.1001Z" fill="#9CA3AF"/>
<path d="M63.7001 8.70029C62.6001 8.10029 61.3001 7.80029 59.9001 7.80029C58.5001 7.80029 57.2001 8.10029 56.1001 8.70029C55.0001 9.30029 54.2001 10.2003 53.5001 11.3003C52.9001 12.4003 52.6001 13.7003 52.6001 15.2003C52.6001 16.7003 52.9001 18.0003 53.5001 19.1003C54.1001 20.2003 54.9001 21.0003 56.0001 21.6003C57.1001 22.2003 58.4001 22.5003 59.8001 22.5003C61.3001 22.5003 62.6001 22.2003 63.6001 21.6003C64.7001 21.0003 65.5001 20.1003 66.1001 19.0003C66.7001 17.9003 67.0001 16.6003 67.0001 15.1003C67.0001 13.6003 66.7001 12.3003 66.1001 11.2003C65.7001 10.2003 64.8001 9.30029 63.7001 8.70029ZM62.6001 18.5003C62.0001 19.3003 61.1001 19.7003 60.0001 19.7003C58.9001 19.7003 58.0001 19.3003 57.4001 18.5003C56.8001 17.7003 56.4001 16.6003 56.4001 15.1003C56.4001 13.7003 56.7001 12.6003 57.4001 11.7003C58.0001 10.9003 58.9001 10.5003 60.0001 10.5003C61.1001 10.5003 62.0001 10.9003 62.6001 11.7003C63.2001 12.5003 63.6001 13.6003 63.6001 15.1003C63.5001 16.6003 63.2001 17.7003 62.6001 18.5003Z" fill="#9CA3AF"/>
<path d="M102.4 4.1001H93.8004C93.2004 4.1001 92.7004 4.3001 92.4004 4.6001C92.0004 5.0001 91.9004 5.4001 91.9004 6.0001V12.5001V14.9001V20.7001C91.9004 21.3001 92.1004 21.7001 92.4004 22.0001C92.7004 22.3001 93.2004 22.4001 93.9004 22.4001C94.2004 22.4001 94.6004 22.4001 94.9004 22.3001C95.2004 22.3001 95.4004 22.2001 95.6004 22.2001V15.1001H100.5C100.9 15.1001 101.2 15.0001 101.5 14.7001C101.7 14.4001 101.9 14.1001 101.9 13.6001C101.9 13.3001 101.9 13.0001 101.8 12.8001C101.7 12.6001 101.6 12.4001 101.5 12.2001H95.7004V7.1001H101.6C102 7.1001 102.3 7.0001 102.6 6.7001C102.8 6.4001 103 6.0001 103 5.5001C103 5.2001 103 4.9001 102.9 4.7001C102.6 4.4001 102.5 4.3001 102.4 4.1001Z" fill="#9CA3AF"/>
<path d="M88.6003 8.3C88.3003 8.1 87.9003 8 87.4003 8C86.8003 8 86.3003 8.1 85.8003 8.4C85.5003 10.2 85.2003 12 84.8003 13.9C84.4003 15.7 84.1003 17.5 83.7003 19.1H83.6003C83.5003 18.7 83.3003 18 83.1003 17C82.8003 16.1 82.5003 15 82.2003 13.8C81.8003 12.6 81.5003 11.4 81.1003 10.1C81.0003 9.7 80.8003 9.5 80.4003 9.3C80.1003 9.1 79.6003 9.1 79.1003 9.1C78.7003 9.1 78.4003 9.1 78.1003 9.2C77.8003 9.3 77.5003 9.4 77.3003 9.6C76.9003 10.9 76.5003 12.2 76.1003 13.5C75.7003 14.8 75.4003 15.9 75.1003 16.9C74.8003 17.9 74.6003 18.6 74.5003 19.1H74.4003C74.3003 18.8 74.2003 18.3 74.1003 17.7C74.0003 17.1 73.8003 16.4 73.6003 15.6C73.4003 14.8 73.2003 13.9 73.1003 12.8C72.9003 11.8 72.7003 10.7 72.6003 9.6C72.5003 9 72.3003 8.6 72.0003 8.4C71.7003 8.2 71.3003 8 70.8003 8C70.4003 8 70.0003 8.1 69.7003 8.2C69.2003 8.3 69.0003 8.5 68.8003 8.7C68.9003 9.4 69.1003 10.3 69.3003 11.3C69.5003 12.3 69.7003 13.3 70.0003 14.3C70.2003 15.3 70.5003 16.3 70.7003 17.3C70.9003 18.3 71.2003 19.1 71.4003 19.8C71.6003 20.5 71.8003 21.1 72.0003 21.5C72.2003 21.8 72.4003 22.1 72.9003 22.2C73.3003 22.4 73.8003 22.4 74.3003 22.4C74.8003 22.4 75.2003 22.4 75.5003 22.3C75.8003 22.2 76.1003 22.1 76.3003 21.9C76.5003 21.3 76.8003 20.4 77.1003 19.5C77.4003 18.5 77.8003 17.5 78.1003 16.4C78.4003 15.3 78.8003 14.2 79.0003 13.1C79.3003 14.2 79.6003 15.2 79.9003 16.3C80.2003 17.4 80.5003 18.4 80.8003 19.3C81.1003 20.2 81.4003 21 81.6003 21.6C81.8003 22.2 82.5003 22.5 83.7003 22.5C84.2003 22.5 84.6003 22.4 84.9003 22.3C85.3003 22.2 85.6003 22.1 85.7003 21.9C85.9003 21.5 86.0003 21 86.3003 20.3C86.5003 19.6 86.7003 18.9 87.0003 18C87.2003 17.2 87.5003 16.3 87.7003 15.4C87.9003 14.5 88.1003 13.6 88.3003 12.8C88.5003 12 88.6003 11.3 88.8003 10.7C88.9003 10.1 89.0003 9.6 89.0003 9.4C89.1003 8.8 88.9003 8.5 88.6003 8.3Z" fill="#9CA3AF"/>
<path d="M115.1 8C114.8 8 114.5 8 114.2 8.1C113.9 8.2 113.7 8.2 113.5 8.2V14.4V15.8V19C113.3 19.1 112.9 19.3 112.5 19.4C112.1 19.5 111.5 19.6 110.9 19.6C109.9 19.6 109.2 19.4 108.6 18.9C108.1 18.4 107.8 17.7 107.8 16.7V15.8V14.4V9.7C107.8 9.1 107.6 8.6 107.3 8.4C107 8.2 106.5 8 105.8 8C105.4 8 105.1 8 104.8 8.1C104.5 8.2 104.3 8.2 104.2 8.2V14.4V15.8V16.7C104.2 18 104.5 19.1 105 20C105.5 20.8 106.3 21.5 107.3 21.9C108.3 22.3 109.5 22.5 110.8 22.5C111.9 22.5 112.9 22.4 113.8 22.2C114.7 22 115.4 21.7 115.9 21.4C116.3 21.1 116.6 20.9 116.8 20.6C117 20.3 117 19.9 117 19.5V16V14.6V9.7C117 9.1 116.8 8.6 116.5 8.4C116.2 8.1 115.8 8 115.1 8Z" fill="#9CA3AF"/>
<path d="M126.3 13.8002L124.8 13.4002C124.2 13.3002 123.8 13.1002 123.5 12.8002C123.2 12.6002 123.1 12.3002 123.1 11.9002C123.1 11.4002 123.3 11.1002 123.8 10.8002C124.2 10.6002 124.9 10.4002 125.6 10.4002C126.1 10.4002 126.6 10.5002 127.1 10.6002C127.6 10.7002 128.1 10.8002 128.5 11.0002C128.9 11.2002 129.2 11.3002 129.5 11.5002C129.7 11.3002 129.9 11.1002 130 10.9002C130.1 10.6002 130.2 10.4002 130.2 10.0002C130.2 9.5002 130 9.1002 129.6 8.8002C129.2 8.5002 128.6 8.2002 127.9 8.0002C127.2 7.8002 126.3 7.7002 125.4 7.7002C123.6 7.7002 122.2 8.1002 121.2 8.9002C120.2 9.7002 119.7 10.7002 119.7 11.9002C119.7 13.0002 120 13.9002 120.7 14.5002C121.4 15.2002 122.4 15.7002 123.8 16.0002L125.5 16.4002C126.1 16.5002 126.6 16.7002 126.9 17.0002C127.2 17.3002 127.3 17.6002 127.3 18.1002C127.3 19.1002 126.5 19.7002 124.8 19.7002C123.9 19.7002 123.1 19.6002 122.3 19.3002C121.6 19.0002 120.9 18.7002 120.4 18.3002C120.1 18.5002 119.9 18.7002 119.8 19.0002C119.6 19.3002 119.6 19.6002 119.6 19.9002C119.6 20.7002 120.1 21.3002 121.1 21.8002C122.1 22.3002 123.4 22.5002 125 22.5002C126.9 22.5002 128.4 22.1002 129.4 21.3002C130.4 20.5002 130.9 19.5002 130.9 18.1002C130.9 17.0002 130.5 16.0002 129.8 15.3002C129 14.7002 127.9 14.1002 126.3 13.8002Z" fill="#9CA3AF"/>
<path d="M145.6 15.1003C145.9 14.8003 146 14.4003 146 13.9003C146 12.7003 145.7 11.7003 145.2 10.8003C144.7 9.90029 143.9 9.20029 142.9 8.60029C141.9 8.10029 140.8 7.80029 139.5 7.80029C138.6 7.80029 137.7 8.00029 136.8 8.30029C136 8.60029 135.2 9.10029 134.6 9.70029C134 10.3003 133.5 11.1003 133.1 12.0003C132.7 12.9003 132.6 14.0003 132.6 15.1003C132.6 16.7003 132.9 18.1003 133.6 19.2003C134.2 20.3003 135.2 21.2003 136.3 21.7003C137.5 22.3003 138.8 22.5003 140.3 22.5003C141.3 22.5003 142.1 22.4003 142.9 22.2003C143.7 22.0003 144.3 21.7003 144.7 21.4003C145.2 21.0003 145.4 20.6003 145.4 20.1003C145.4 19.8003 145.3 19.5003 145.2 19.2003C145 18.9003 144.8 18.7003 144.6 18.6003C144.2 18.9003 143.6 19.2003 142.9 19.4003C142.2 19.6003 141.4 19.8003 140.6 19.8003C139.4 19.8003 138.3 19.5003 137.5 18.9003C136.9 18.4003 136.4 17.7003 136.2 16.8003L144.4 15.6003C144.9 15.5003 145.3 15.4003 145.6 15.1003ZM136 14.3003C136.1 13.1003 136.4 12.2003 137 11.5003C137.7 10.8003 138.5 10.4003 139.5 10.4003C140.5 10.4003 141.2 10.7003 141.8 11.2003C142.3 11.8003 142.6 12.4003 142.7 13.2003L136 14.3003Z" fill="#9CA3AF"/>
<path d="M14 15.8C16.6 16.9 19.1 18.2 21.8 18.8C23 19 24.2 19.1 25.4 19.1V12.5H24.4C20.7 12.5 17.3 14.4 14 15.8Z" fill="#9CA3AF"/>
<path d="M6.3 17.8998C5.1 17.7998 3.9 17.7998 2.7 17.7998H0V23.8998C0 24.9998 0.9 25.8998 2 25.8998H23.5C24.6 25.8998 25.5 24.9998 25.5 23.8998V23.0998C22.9 23.0998 20.2 22.7998 17.8 21.7998C13.9 20.4998 10.4 17.9998 6.3 17.8998Z" fill="#9CA3AF"/>
<path d="M23.4 0.5H2C0.9 0.5 0 1.4 0 2.5V13.8C2.4 13.8 4.9 13.9 7.3 13.7C10.6 13.4 13.5 11.6 16.6 10.4C19.4 9.2 22.4 8.5 25.4 8.6V2.5C25.4 1.4 24.5 0.5 23.4 0.5Z" fill="#9CA3AF"/>
<path d="M25.4 12.5002V8.50017C22.4 8.40017 19.4 9.10017 16.6 10.3002C13.5 11.5002 10.6 13.3002 7.3 13.6002C4.9 13.8002 2.4 13.7002 0 13.7002V17.8002H2.7C3.9 17.8002 5.1 17.8002 6.3 17.9002C10.4 18.0002 13.9 20.5002 17.7 21.8002C20.1 22.8002 22.8 23.1002 25.4 23.1002V19.1002C24.2 19.1002 23 19.0002 21.8 18.8002C19.1 18.2002 16.6 16.9002 14 15.8002C17.3 14.4002 20.7 12.5002 24.4 12.5002H25.4Z" fill="white"/>
</g>
<defs>
<clipPath id="clip0_4451_8342">
<rect width="146" height="28" fill="white"/>
</clipPath>
</defs>
</svg>
