<svg width="336" height="65" viewBox="0 0 336 65" fill="none" xmlns="http://www.w3.org/2000/svg">
<g clip-path="url(#clip0_5323_11539)">
<path d="M252.673 1.89526H83.4539C77.2807 1.89526 72.2764 6.8996 72.2764 13.0728V48.3362C72.2764 54.5094 77.2807 59.5137 83.4539 59.5137H252.673C258.847 59.5137 263.851 54.5094 263.851 48.3362V13.0728C263.851 6.8996 258.847 1.89526 252.673 1.89526Z" stroke="#9CA3AF" stroke-width="1.92405" stroke-miterlimit="10"/>
<path d="M77.251 22.146H67.2962C65.3166 22.146 63.7119 23.7507 63.7119 25.7303V35.6851C63.7119 37.6646 65.3166 39.2694 67.2962 39.2694H77.251C79.2306 39.2694 80.8353 37.6646 80.8353 35.6851V25.7303C80.8353 23.7507 79.2306 22.146 77.251 22.146Z" fill="#E5E7EB" stroke="#9CA3AF" stroke-width="1.92405" stroke-miterlimit="10"/>
<path d="M268.825 22.146H258.87C256.891 22.146 255.286 23.7507 255.286 25.7303V35.6851C255.286 37.6646 256.891 39.2694 258.87 39.2694H268.825C270.805 39.2694 272.409 37.6646 272.409 35.6851V25.7303C272.409 23.7507 270.805 22.146 268.825 22.146Z" fill="#E5E7EB" stroke="#9CA3AF" stroke-width="1.92405" stroke-miterlimit="10"/>
<path d="M147.793 33.5446V19.3343H147.711L138.046 33.5446H147.793ZM151.069 33.5446H155V36.616H151.069V43.4141H147.793V36.616H135.057V33.258L148.284 14.3791H151.069V33.5446ZM162.071 29.1218C162.071 30.2139 162.099 31.4424 162.153 32.8075C162.235 34.1453 162.454 35.4148 162.808 36.616C163.191 37.79 163.791 38.7865 164.61 39.6055C165.429 40.4246 166.576 40.8341 168.05 40.8341C169.525 40.8341 170.671 40.4246 171.49 39.6055C172.309 38.7865 172.896 37.79 173.251 36.616C173.633 35.4148 173.852 34.1453 173.906 32.8075C173.988 31.4424 174.029 30.2139 174.029 29.1218C174.029 28.412 174.016 27.6339 173.988 26.7876C173.988 25.9139 173.92 25.0539 173.784 24.2076C173.674 23.334 173.497 22.4876 173.251 21.6686C173.033 20.8495 172.692 20.1397 172.227 19.5391C171.791 18.9111 171.231 18.4061 170.548 18.0239C169.866 17.6416 169.033 17.4505 168.05 17.4505C167.067 17.4505 166.235 17.6416 165.552 18.0239C164.87 18.4061 164.296 18.9111 163.832 19.5391C163.395 20.1397 163.054 20.8495 162.808 21.6686C162.59 22.4876 162.413 23.334 162.276 24.2076C162.167 25.0539 162.099 25.9139 162.071 26.7876C162.071 27.6339 162.071 28.412 162.071 29.1218ZM158.386 29.1628C158.386 28.098 158.413 26.9923 158.468 25.8457C158.522 24.699 158.659 23.5797 158.877 22.4876C159.096 21.3956 159.409 20.3581 159.819 19.3753C160.229 18.3924 160.788 17.5324 161.498 16.7953C162.208 16.0582 163.095 15.4712 164.16 15.0344C165.252 14.5975 166.549 14.3791 168.05 14.3791C169.552 14.3791 170.835 14.5975 171.9 15.0344C172.992 15.4712 173.893 16.0582 174.603 16.7953C175.312 17.5324 175.872 18.3924 176.282 19.3753C176.691 20.3581 177.005 21.3956 177.224 22.4876C177.442 23.5797 177.578 24.699 177.633 25.8457C177.688 26.9923 177.715 28.098 177.715 29.1628C177.715 30.2275 177.688 31.3332 177.633 32.4799C177.578 33.6265 177.442 34.7459 177.224 35.838C177.005 36.93 176.691 37.9675 176.282 38.9503C175.872 39.9058 175.312 40.7522 174.603 41.4893C173.893 42.2265 173.006 42.8134 171.941 43.2503C170.876 43.6598 169.579 43.8645 168.05 43.8645C166.549 43.8645 165.252 43.6598 164.16 43.2503C163.095 42.8134 162.208 42.2265 161.498 41.4893C160.788 40.7522 160.229 39.9058 159.819 38.9503C159.409 37.9675 159.096 36.93 158.877 35.838C158.659 34.7459 158.522 33.6265 158.468 32.4799C158.413 31.3332 158.386 30.2275 158.386 29.1628ZM193.304 33.5446V19.3343H193.222L183.557 33.5446H193.304ZM196.58 33.5446H200.511V36.616H196.58V43.4141H193.304V36.616H180.568V33.258L193.795 14.3791H196.58V33.5446Z" fill="#9CA3AF"/>
<path d="M8.66113 22.6353C19.5812 12.8799 31.4794 13.755 43.2103 22.6353C50.1794 27.9119 56.9618 30.7755 63.712 30.7047" stroke="#9CA3AF" stroke-width="1.92405" stroke-linecap="round" stroke-linejoin="round"/>
<path d="M327.558 38.4845C316.638 48.2399 304.739 47.3647 293.009 38.4845C286.04 33.2079 279.257 30.3443 272.507 30.4151" stroke="#9CA3AF" stroke-width="1.92405" stroke-linecap="round" stroke-linejoin="round"/>
<path d="M334.051 42.8794L330.569 39.9065" stroke="#9CA3AF" stroke-width="1.92405" stroke-linecap="round" stroke-linejoin="round"/>
<path d="M327.094 30.415L327.808 34.9388" stroke="#9CA3AF" stroke-width="1.92405" stroke-linecap="round" stroke-linejoin="round"/>
<path d="M335.041 33.6711L331.231 36.2129" stroke="#9CA3AF" stroke-width="1.92405" stroke-linecap="round" stroke-linejoin="round"/>
<path d="M12.2772 29.9582L9.76758 26.1294" stroke="#9CA3AF" stroke-width="1.92405" stroke-linecap="round" stroke-linejoin="round"/>
<path d="M0.958984 20.5117L5.36048 21.7923" stroke="#9CA3AF" stroke-width="1.92405" stroke-linecap="round" stroke-linejoin="round"/>
<path d="M3.32617 28.6004L6.33129 25.1384" stroke="#9CA3AF" stroke-width="1.92405" stroke-linecap="round" stroke-linejoin="round"/>
</g>
<defs>
<clipPath id="clip0_5323_11539">
<rect width="336" height="63.1268" fill="white" transform="translate(0 0.936523)"/>
</clipPath>
</defs>
</svg>
