<svg xmlns="http://www.w3.org/2000/svg" width="1438" height="443" fill="none" viewBox="0 0 1438 443">
  <path fill="url(#a)" fill-opacity=".2" d="m360.915 280.272-.98-9.028-.986 9.014c.687.048 1.259.021 1.966.014Z"/>
  <path fill="url(#b)" fill-opacity=".2" d="M0 361.649v9.035h1440v-9.035H0Zm0 18.042v9.048h1440v-9.048H0Zm0 36.22v9.034h1440v-9.034H0Zm0 18.041V443h1440v-9.048H0Z"/>
  <path fill="url(#c)" fill-opacity=".2" d="M715.476 176.287c0-47.38-38.335-85.875-85.501-85.875-47.165 0-85.487 38.495-85.487 85.875h8.994a77.067 77.067 0 0 1 5.804-29.416 76.82 76.82 0 0 1 16.58-24.939 76.413 76.413 0 0 1 24.826-16.655 76.135 76.135 0 0 1 29.283-5.83 76.133 76.133 0 0 1 29.287 5.828 76.41 76.41 0 0 1 24.829 16.655 76.795 76.795 0 0 1 16.584 24.939 77.083 77.083 0 0 1 5.807 29.418 77.083 77.083 0 0 1-5.807 29.418 76.806 76.806 0 0 1-16.584 24.939 76.407 76.407 0 0 1-24.829 16.654 76.131 76.131 0 0 1-29.287 5.829l-180.552-.007.551 9.048h180.001c47.166 0 85.501-38.509 85.501-85.888v.007Z"/>
  <path fill="url(#d)" fill-opacity=".2" d="M697.516 176.259c0-37.395-30.274-67.805-67.5-67.805s-67.5 30.41-67.5 67.805h9.008a58.912 58.912 0 0 1 4.432-22.497 58.707 58.707 0 0 1 12.678-19.073 58.405 58.405 0 0 1 18.986-12.735 58.198 58.198 0 0 1 22.396-4.452c32.362 0 58.506 26.249 58.506 58.757 0 32.509-26.144 58.772-58.506 58.799l-182.75.028 1.334 9.034 181.416-.027c37.22-.028 67.493-30.438 67.493-67.834h.007Z"/>
  <path fill="url(#e)" fill-opacity=".2" d="M679.495 176.28c0-27.404-22.226-49.717-49.506-49.717s-49.499 22.306-49.499 49.717h9c0-22.524 18.076-40.682 40.499-40.682 22.423 0 40.498 18.158 40.498 40.682a40.78 40.78 0 0 1-3.064 15.58 40.641 40.641 0 0 1-8.777 13.209 40.418 40.418 0 0 1-13.148 8.819 40.279 40.279 0 0 1-15.509 3.081H443.055l2.354 9.041h184.58c27.28 0 49.499-22.319 49.499-49.73h.007Z"/>
  <path fill="url(#f)" fill-opacity=".2" d="m428.388 180.825 4.524 9.034 197.077-.007a13.55 13.55 0 0 0 9.523-4.002 13.672 13.672 0 0 0 3.974-9.57 13.666 13.666 0 0 0-3.972-9.57 13.542 13.542 0 0 0-9.525-3.995 13.545 13.545 0 0 0-9.527 3.99 13.669 13.669 0 0 0-3.977 9.568h9.007c0-2.549 1.953-4.51 4.49-4.51 2.538 0 4.511 1.961 4.511 4.51a4.501 4.501 0 0 1-1.3 3.222 4.46 4.46 0 0 1-3.204 1.316l-201.601.014Z"/>
  <path fill="url(#g)" fill-opacity=".2" d="M269.999 90.419c-65.758 0-122.836 36.575-152.885 90.399H0v9.041h122.047l1.272-2.378c28.11-52.409 83.221-88.028 146.673-88.028 92.012 0 166.512 74.831 166.512 167.267 0 7.449 6.095 13.572 13.497 13.565h89.997a13.535 13.535 0 0 0 9.525-3.991 13.66 13.66 0 0 0 3.973-9.568h-8.994c0 2.549-1.973 4.511-4.504 4.511h-90.004a4.407 4.407 0 0 1-3.2-1.298 4.455 4.455 0 0 1-1.297-3.213c0-97.314-78.622-176.307-175.498-176.307Z"/>
  <path fill="url(#h)" fill-opacity=".2" d="M449.994 298.34h89.998a31.46 31.46 0 0 0 22.257-9.265 31.746 31.746 0 0 0 9.247-22.349h-9.007a22.568 22.568 0 0 1-1.689 8.66 22.51 22.51 0 0 1-4.875 7.34 22.4 22.4 0 0 1-7.312 4.891 22.312 22.312 0 0 1-8.621 1.689h-89.998a22.344 22.344 0 0 1-15.941-6.593 22.514 22.514 0 0 1-4.876-7.348 22.6 22.6 0 0 1-1.687-8.666c0-87.351-70.562-158.245-157.491-158.245-62.703 0-116.55 37.08-141.877 90.412H0v9.041h133.428l1.191-2.658c23.307-51.733 75.112-87.747 135.367-87.747 82.065 0 148.496 66.733 148.496 149.197a31.756 31.756 0 0 0 9.24 22.364 31.466 31.466 0 0 0 22.265 9.277h.007Z"/>
  <path fill="url(#i)" fill-opacity=".2" d="M589.484 266.727h-8.994a40.742 40.742 0 0 1-3.061 15.58 40.595 40.595 0 0 1-8.777 13.208 40.41 40.41 0 0 1-13.15 8.815 40.263 40.263 0 0 1-15.51 3.072h-90.005a40.25 40.25 0 0 1-15.511-3.076 40.408 40.408 0 0 1-13.15-8.818 40.614 40.614 0 0 1-8.774-13.212 40.753 40.753 0 0 1-3.056-15.583c0-77.353-62.507-140.15-139.504-140.15-59.472 0-109.889 37.676-129.938 90.406H0v9.048h135l10.871-.014 1.061-3.02c17.913-50.899 66.207-87.385 123.067-87.385 72.126 0 130.496 58.648 130.496 131.115 0 27.424 22.219 49.73 49.506 49.723h89.997c27.281.007 49.492-22.299 49.492-49.709h-.006Z"/>
  <path fill="url(#j)" fill-opacity=".2" d="M625.492 266.727h-9.007a77.052 77.052 0 0 1-5.801 29.416 76.775 76.775 0 0 1-16.58 24.937 76.389 76.389 0 0 1-24.828 16.651 76.095 76.095 0 0 1-29.284 5.822h-89.998a76.105 76.105 0 0 1-29.289-5.826 76.363 76.363 0 0 1-24.831-16.656 76.787 76.787 0 0 1-16.581-24.943 77.062 77.062 0 0 1-5.799-29.422c0-57.391-46.383-103.984-103.488-103.984v-.007c-52.506 0-95.651 39.445-102.318 90.405H.021v9.035h171.11l4.422-.226.34-3.909c4.354-48.384 44.784-86.264 94.12-86.264 52.247 0 94.494 42.439 94.494 94.95 0 47.4 38.328 85.895 85.494 85.882h89.997c47.166.013 85.501-38.489 85.501-85.861h-.007Z"/>
  <path fill="url(#k)" fill-opacity=".2" d="M0 271.237v9.048l269.999-.02a13.571 13.571 0 0 0 9.522-4.008 13.692 13.692 0 0 0 3.975-9.571 13.664 13.664 0 0 0-3.975-9.566 13.543 13.543 0 0 0-9.522-3.993 13.545 13.545 0 0 0-9.522 3.993 13.668 13.668 0 0 0-3.975 9.566h8.994c0-2.549 1.966-4.524 4.503-4.524 2.538 0 4.504 1.982 4.504 4.524 0 2.556-1.966 4.51-4.504 4.531L0 271.237Z"/>
  <path fill="url(#l)" fill-opacity=".2" d="M301.504 266.734c0-17.427-14.164-31.641-31.498-31.641a31.497 31.497 0 0 0-22.259 9.284 31.79 31.79 0 0 0-9.253 22.357h9.014c0-12.534 10.014-22.614 22.491-22.614s22.498 10.08 22.498 22.614c0 12.533-10.014 22.599-22.498 22.572L0 289.279v9.034l269.999.027a31.453 31.453 0 0 0 22.253-9.263 31.742 31.742 0 0 0 9.245-22.343h.007Z"/>
  <path fill="url(#m)" fill-opacity=".2" d="M319.491 266.706c0-27.404-22.212-49.73-49.492-49.73-27.28 0-49.499 22.32-49.499 49.73h9.001c0-22.524 18.075-40.682 40.498-40.682s40.499 18.158 40.499 40.682c0 22.525-18.083 40.682-40.499 40.682H0v9.035h269.999c27.28 0 49.492-22.306 49.492-49.717Z"/>
  <path fill="url(#n)" fill-opacity=".2" d="M355.5 266.713c0-47.379-38.335-85.888-85.501-85.888-47.165 0-85.5 38.509-85.5 85.888h9.007a77.087 77.087 0 0 1 5.802-29.419 76.82 76.82 0 0 1 16.579-24.942 76.428 76.428 0 0 1 24.827-16.659 76.141 76.141 0 0 1 29.285-5.834 76.15 76.15 0 0 1 29.286 5.834 76.424 76.424 0 0 1 24.826 16.659 76.788 76.788 0 0 1 16.579 24.942 77.088 77.088 0 0 1 5.803 29.419 77.08 77.08 0 0 1-5.805 29.414 76.784 76.784 0 0 1-16.581 24.936 76.386 76.386 0 0 1-24.826 16.651 76.122 76.122 0 0 1-29.282 5.826H0v9.034l269.999.007c47.166.007 85.501-38.489 85.501-85.868Zm19.361 49.71-5.238-9.035-9.64-.013a41.683 41.683 0 0 1-9.109-1.025l-4.497 8.146a49.14 49.14 0 0 0 13.606 1.913l14.878.014Zm610.628-140.136c0-47.379-38.335-85.875-85.501-85.875-47.165 0-85.487 38.496-85.487 85.875h8.994a77.074 77.074 0 0 1 5.804-29.416 76.79 76.79 0 0 1 16.58-24.938 76.397 76.397 0 0 1 24.826-16.655 76.11 76.11 0 0 1 29.283-5.831 76.133 76.133 0 0 1 29.287 5.829 76.417 76.417 0 0 1 24.829 16.654 76.821 76.821 0 0 1 16.584 24.939 77.083 77.083 0 0 1 5.807 29.418 77.1 77.1 0 0 1-5.808 29.421 76.817 76.817 0 0 1-16.585 24.941 76.41 76.41 0 0 1-24.832 16.656 76.137 76.137 0 0 1-29.289 5.829l-90.011.014a76.075 76.075 0 0 1-29.288-5.823 76.34 76.34 0 0 1-24.828-16.656 76.736 76.736 0 0 1-16.575-24.946 77.018 77.018 0 0 1-5.789-29.422c.021-57.391-46.383-103.998-103.487-103.998v-.007c-52.5 0-95.651 39.452-102.318 90.405h-68.67a13.54 13.54 0 0 0-9.529 3.993 13.664 13.664 0 0 0-3.975 9.573h9.007a4.459 4.459 0 0 1 1.292-3.215 4.416 4.416 0 0 1 3.198-1.303h72.126l4.422-.225.34-3.909c4.354-48.384 44.784-86.264 94.12-86.264 52.248 0 94.494 42.438 94.481 94.943-.021 47.393 38.315 85.902 85.487 85.881l90.004-.013c47.179 0 85.514-38.502 85.514-85.882l-.013.007Z"/>
  <path fill="url(#o)" fill-opacity=".2" d="M809.97 216.99a40.252 40.252 0 0 1-15.507-3.079 40.408 40.408 0 0 1-13.147-8.817 40.616 40.616 0 0 1-8.775-13.208 40.772 40.772 0 0 1-3.063-15.578c0-77.36-62.52-140.15-139.503-140.15v-.007c-59.479 0-109.91 37.676-129.958 90.406h-41.043c-20.566.007-38.247 12.684-45.716 30.657l6.435 9.082a40.634 40.634 0 0 1 14.383-22.136 40.314 40.314 0 0 1 24.898-8.555h35.995l10.871-.014 1.061-3.013c17.913-50.9 66.208-87.385 123.067-87.385 72.126 0 130.51 58.648 130.517 131.115.007 27.417 22.219 49.743 49.485 49.73l89.984-.014c27.287 0 49.513-22.326 49.513-49.737s-22.226-49.716-49.513-49.716-49.492 22.305-49.492 49.716h8.994c0-22.524 18.082-40.682 40.498-40.682 22.416 0 40.505 18.158 40.505 40.682a40.771 40.771 0 0 1-3.065 15.582 40.643 40.643 0 0 1-8.778 13.21 40.438 40.438 0 0 1-13.151 8.818 40.268 40.268 0 0 1-15.511 3.079l-89.984.014Z"/>
  <path fill="url(#p)" fill-opacity=".2" d="M931.473 176.308a31.786 31.786 0 0 0-9.248-22.35 31.5 31.5 0 0 0-22.25-9.285 31.485 31.485 0 0 0-22.255 9.281 31.772 31.772 0 0 0-9.243 22.354h8.993c0-12.541 10.021-22.6 22.498-22.6s22.511 10.059 22.511 22.6c0 12.54-10.034 22.606-22.518 22.586H809.97a22.302 22.302 0 0 1-8.619-1.689 22.382 22.382 0 0 1-7.309-4.889 22.493 22.493 0 0 1-4.874-7.338 22.595 22.595 0 0 1-1.689-8.657c.007-87.316-70.568-158.211-157.49-158.211-62.704 0-116.557 37.08-141.884 90.412l-29.117-.034c-24.899-.034-46.676 13.558-58.384 33.753l6.354 7.086a58.486 58.486 0 0 1 21.554-23.267 58.129 58.129 0 0 1 30.476-8.538l34.43.035 1.211-2.652c23.3-51.74 75.099-87.747 135.353-87.747 82.065 0 148.497 66.733 148.49 149.163a31.74 31.74 0 0 0 9.244 22.346 31.445 31.445 0 0 0 22.254 9.261h89.998a31.467 31.467 0 0 0 22.253-9.272 31.755 31.755 0 0 0 9.245-22.348h.007Z"/>
  <path fill="url(#q)" fill-opacity=".2" d="M809.97 180.832a4.423 4.423 0 0 1-3.196-1.31 4.458 4.458 0 0 1-1.294-3.215C805.48 78.993 726.858 0 629.982 0 564.217 0 507.14 36.575 477.091 90.399h-18.11c-30.015.007-56.452 15.601-71.704 39.144l6.735 6.117a76.56 76.56 0 0 1 27.807-26.576 76.151 76.151 0 0 1 37.162-9.644h23.062l1.272-2.378c28.111-52.41 83.202-88.028 146.667-88.028 92.005 0 166.505 74.831 166.505 167.267 0 7.449 6.095 13.565 13.483 13.558l89.984-.014a13.553 13.553 0 0 0 9.53-4.001 13.682 13.682 0 0 0 3.974-9.578 13.662 13.662 0 0 0-3.975-9.565 13.545 13.545 0 0 0-9.522-3.993 13.543 13.543 0 0 0-9.522 3.993 13.662 13.662 0 0 0-3.975 9.565h9.007a4.467 4.467 0 0 1 .323-1.736 4.423 4.423 0 0 1 2.438-2.449 4.399 4.399 0 0 1 1.729-.325c2.537 0 4.504 1.961 4.504 4.51a4.494 4.494 0 0 1-1.303 3.225 4.434 4.434 0 0 1-3.208 1.313l-89.984.028Zm-28.028 81.343-19.403-9.048c-28.375-.013-56.751 0-85.126 0l-19.409 9.048c41.315-.013 82.623 0 123.938 0Zm-47.077-36.165-5.239-9.034-9.626-.007h-9.626l-5.239 9.041 14.865-.006 14.865.006Zm-9.116-18.096-2.762-9.048-2.96-.007h-2.959l-2.762 9.055 5.721-.007 5.722.007Zm-4.831-18.055-.918-9.034-.925 9.034c.612-.014 1.224 0 1.843 0Zm282.532 76.827h9.01a13.661 13.661 0 0 0-3.98-9.568 13.54 13.54 0 0 0-9.528-3.991h-51.567l-19.402 9.048 70.969-.007a4.414 4.414 0 0 1 3.198 1.301c.42.421.75.923.98 1.476.22.553.33 1.145.32 1.741Zm32.86-15.711 3.17-12.739a49.458 49.458 0 0 0-17.67-15.617 49.306 49.306 0 0 0-22.858-5.643h-18.6l-5.238 9.034h23.838a40.262 40.262 0 0 1 22.438 6.798 40.593 40.593 0 0 1 14.92 18.167Z"/>
  <path fill="url(#r)" fill-opacity=".2" d="m1043.38 228.409 4.49-8.419a67.37 67.37 0 0 0-22.29-15.626 67.063 67.063 0 0 0-26.628-5.498h-11.973l-2.769 9.048 14.735-.007a58.12 58.12 0 0 1 24.465 5.345 58.354 58.354 0 0 1 19.97 15.157Z"/>
  <path fill="url(#s)" fill-opacity=".2" d="m1052.97 212.288 5.78-6.902c-15.95-15.757-37.43-24.579-59.805-24.561h-8.987l-.925 9.034 9.912.007c21.105.007 40.205 8.563 54.025 22.422Zm-698.491 85.533 2.667-8.727c.932.116 1.878.178 2.844.178l2.979.007 2.762 9.048-6.68-.014a31.468 31.468 0 0 1-4.572-.492Zm-35.104 44.42 8.055-5.993a76.16 76.16 0 0 0 32.566 7.278l42.56.014 19.403 9.048-61.963-.021a84.891 84.891 0 0 1-40.621-10.319v-.007Zm504.065-75.514h-8.993a4.455 4.455 0 0 1-2.761 4.186 4.416 4.416 0 0 1-1.729.324H629.921l-.987 9.021c.34.027.694.041 1.041.034h179.982a13.533 13.533 0 0 0 9.517-3.998 13.657 13.657 0 0 0 3.966-9.567Z"/>
  <path fill="url(#t)" fill-opacity=".2" d="M859.496 266.727h-8.993a40.771 40.771 0 0 1-3.065 15.582 40.607 40.607 0 0 1-8.78 13.209 40.424 40.424 0 0 1-13.154 8.814 40.28 40.28 0 0 1-15.513 3.07l-180.016-.021a41.194 41.194 0 0 1-9.109-1.038l-4.504 8.152a49.437 49.437 0 0 0 13.606 1.921l180.023.02c27.293.014 49.505-22.299 49.505-49.709Z"/>
  <path fill="url(#u)" fill-opacity=".2" d="M629.989 325.457a57.55 57.55 0 0 1-19.028-3.137l-6.273 7.278a66.32 66.32 0 0 0 25.301 4.907h179.995c37.213.027 67.486-30.383 67.486-67.778h-8.994a58.877 58.877 0 0 1-4.431 22.494 58.664 58.664 0 0 1-12.678 19.068 58.37 58.37 0 0 1-18.988 12.727 58.167 58.167 0 0 1-22.395 4.441H629.989Z"/>
  <path fill="url(#v)" fill-opacity=".2" d="M895.485 266.727h-9.008a77.043 77.043 0 0 1-5.804 29.418 76.775 76.775 0 0 1-16.584 24.938 76.388 76.388 0 0 1-24.831 16.65 76.094 76.094 0 0 1-29.288 5.82l-180.008-.027a76.225 76.225 0 0 1-32.56-7.278l-8.054 5.993c12.082 6.574 25.919 10.312 40.614 10.319l180.008.028c47.179.013 85.515-38.482 85.515-85.861Z"/>
  <path fill="url(#w)" fill-opacity=".2" d="M1034.95 352.588c47.16.014 85.5-38.482 85.52-85.882a4.36 4.36 0 0 1 .33-1.746c.22-.555.56-1.058.98-1.481a4.448 4.448 0 0 1 3.21-1.317c2.54 0 4.49 1.975 4.49 4.524 0 2.235-1.49 4.018-3.58 4.428l-.91 9.13c3.58-.019 7-1.454 9.52-3.993a13.656 13.656 0 0 0 3.98-9.565 13.66 13.66 0 0 0-3.98-9.566 13.515 13.515 0 0 0-9.52-3.993c-3.58.024-7 1.462-9.53 4.003a13.735 13.735 0 0 0-3.99 9.576 76.93 76.93 0 0 1-5.81 29.425 76.733 76.733 0 0 1-16.59 24.943 76.437 76.437 0 0 1-24.84 16.654 76.08 76.08 0 0 1-29.29 5.825l-134.993-.027a76.217 76.217 0 0 1-32.559-7.278l-8.055 5.993a84.725 84.725 0 0 0 40.614 10.32l135.003.027Zm404.98-72.303v-9.048h-224.97a.459.459 0 0 1-.1.007l-.94 9.014c.34.027.7.041 1.04.034l224.97-.007Zm0 18.028v-9.034h-224.99c-.96-.007-1.91-.069-2.84-.185l-2.67 8.727c1.79.314 3.63.478 5.51.485l224.99.007Zm-234.09 8.03-4.5 8.153a49.37 49.37 0 0 0 13.6 1.913l224.99.014v-9.034l-224.99-.014c-3.06-.004-6.11-.35-9.1-1.032Zm-23.47 29.905-8.06 5.993c12.09 6.575 25.92 10.313 40.62 10.32l224.99.013v-9.034l-224.99-.014a76.208 76.208 0 0 1-32.56-7.278Z"/>
  <path fill="url(#x)" fill-opacity=".2" d="M1174.55 266.706c0-27.404-22.22-49.73-49.5-49.73s-49.51 22.32-49.52 49.737a40.81 40.81 0 0 1-3.06 15.584 40.671 40.671 0 0 1-8.79 13.21 40.344 40.344 0 0 1-13.15 8.816 40.265 40.265 0 0 1-15.52 3.072l-135.002-.02a41.132 41.132 0 0 1-9.102-1.032l-4.504 8.153a49.44 49.44 0 0 0 13.606 1.913l135.002.028c27.3.006 49.52-22.306 49.53-49.724a40.814 40.814 0 0 1 3.07-15.582 40.643 40.643 0 0 1 8.78-13.21 40.365 40.365 0 0 1 13.15-8.818 40.278 40.278 0 0 1 15.51-3.079c22.42 0 40.5 18.158 40.5 40.682 0 22.525-18.08 40.682-40.02 40.676-2.9-.035-5.8-.384-8.63-1.039l-4.5 8.153c4.32 1.243 8.89 1.913 13.13 1.92 26.8.007 49.02-22.299 49.02-49.71Z"/>
  <path fill="url(#y)" fill-opacity=".2" d="M1034.95 298.34c17.33.021 31.49-14.187 31.52-31.641.03-32.529 26.17-58.792 58.53-58.792s58.49 26.256 58.49 58.772-26.12 58.751-57.98 58.785c-6.3-.01-12.56-1.07-18.52-3.137l-6.28 7.272a65.629 65.629 0 0 0 24.8 4.913c36.71-.034 66.99-30.445 66.99-67.84s-30.28-67.799-67.5-67.799c-37.23 0-67.5 30.411-67.53 67.833a22.602 22.602 0 0 1-6.58 16.004 22.479 22.479 0 0 1-7.32 4.896 22.307 22.307 0 0 1-8.62 1.7l-134.996-.027c-.966 0-1.912-.069-2.844-.178l-2.666 8.727c1.789.314 3.632.478 5.51.485l134.996.027Z"/>
  <path fill="url(#z)" fill-opacity=".2" d="M1210.53 266.713c0-47.379-38.32-85.888-85.48-85.888-47.17 0-85.5 38.509-85.52 85.895a4.33 4.33 0 0 1-.33 1.74 4.399 4.399 0 0 1-.98 1.473 4.423 4.423 0 0 1-3.21 1.297l-134.995.014a.435.435 0 0 1-.102 0l-.932 9.014c.34.027.694.041 1.034.034l134.995-.007c7.42 0 13.52-6.123 13.52-13.565a77.292 77.292 0 0 1 5.81-29.422 76.754 76.754 0 0 1 16.59-24.943 76.322 76.322 0 0 1 24.83-16.66 76.146 76.146 0 0 1 29.29-5.836c10.04-.008 20 1.974 29.28 5.834a76.44 76.44 0 0 1 24.83 16.659 76.87 76.87 0 0 1 16.58 24.942 77.085 77.085 0 0 1 5.8 29.419c0 42.493-34.19 76.84-76.02 76.813a75.816 75.816 0 0 1-32.08-7.278l-8.06 5.986c12.09 6.581 25.92 10.32 40.14 10.333 46.69.021 85.01-38.475 85.01-85.854Z"/>
  <defs>
    <linearGradient id="a" x1="358.949" x2="362.327" y1="271.244" y2="271.806" gradientUnits="userSpaceOnUse">
      <stop offset=".135" stop-color="#332929"/>
      <stop offset="1" stop-color="#fff"/>
    </linearGradient>
    <linearGradient id="b" x1="-.011" x2="13.757" y1="361.649" y2="548.238" gradientUnits="userSpaceOnUse">
      <stop offset=".135" stop-color="#332929"/>
      <stop offset="1" stop-color="#fff"/>
    </linearGradient>
    <linearGradient id="c" x1="449.421" x2="644.619" y1="90.412" y2="321.914" gradientUnits="userSpaceOnUse">
      <stop offset=".135" stop-color="#332929"/>
      <stop offset="1" stop-color="#fff"/>
    </linearGradient>
    <linearGradient id="d" x1="447.264" x2="594.816" y1="108.454" y2="316.839" gradientUnits="userSpaceOnUse">
      <stop offset=".135" stop-color="#332929"/>
      <stop offset="1" stop-color="#fff"/>
    </linearGradient>
    <linearGradient id="e" x1="443.053" x2="539.832" y1="126.563" y2="302.734" gradientUnits="userSpaceOnUse">
      <stop offset=".135" stop-color="#332929"/>
      <stop offset="1" stop-color="#fff"/>
    </linearGradient>
    <linearGradient id="f" x1="428.386" x2="438.431" y1="162.715" y2="223.657" gradientUnits="userSpaceOnUse">
      <stop offset=".135" stop-color="#332929"/>
      <stop offset="1" stop-color="#fff"/>
    </linearGradient>
    <linearGradient id="g" x1="-.004" x2="163.374" y1="90.419" y2="455.074" gradientUnits="userSpaceOnUse">
      <stop offset=".135" stop-color="#332929"/>
      <stop offset="1" stop-color="#fff"/>
    </linearGradient>
    <linearGradient id="h" x1="-.004" x2="159.914" y1="108.454" y2="476.955" gradientUnits="userSpaceOnUse">
      <stop offset=".135" stop-color="#332929"/>
      <stop offset="1" stop-color="#fff"/>
    </linearGradient>
    <linearGradient id="i" x1="-.005" x2="156.505" y1="126.563" y2="498.591" gradientUnits="userSpaceOnUse">
      <stop offset=".135" stop-color="#332929"/>
      <stop offset="1" stop-color="#fff"/>
    </linearGradient>
    <linearGradient id="j" x1=".016" x2="150.041" y1="162.715" y2="541.101" gradientUnits="userSpaceOnUse">
      <stop offset=".135" stop-color="#332929"/>
      <stop offset="1" stop-color="#fff"/>
    </linearGradient>
    <linearGradient id="k" x1="-.002" x2="7.713" y1="253.127" y2="314.791" gradientUnits="userSpaceOnUse">
      <stop offset=".135" stop-color="#332929"/>
      <stop offset="1" stop-color="#fff"/>
    </linearGradient>
    <linearGradient id="l" x1="-.002" x2="37.17" y1="235.093" y2="370.765" gradientUnits="userSpaceOnUse">
      <stop offset=".135" stop-color="#332929"/>
      <stop offset="1" stop-color="#fff"/>
    </linearGradient>
    <linearGradient id="m" x1="-.002" x2="80.009" y1="216.976" y2="413.784" gradientUnits="userSpaceOnUse">
      <stop offset=".135" stop-color="#332929"/>
      <stop offset="1" stop-color="#fff"/>
    </linearGradient>
    <linearGradient id="n" x1="-.008" x2="210.984" y1="72.296" y2="640.291" gradientUnits="userSpaceOnUse">
      <stop offset=".135" stop-color="#332929"/>
      <stop offset="1" stop-color="#fff"/>
    </linearGradient>
    <linearGradient id="o" x1="413.253" x2="580.101" y1="36.151" y2="396.881" gradientUnits="userSpaceOnUse">
      <stop offset=".135" stop-color="#332929"/>
      <stop offset="1" stop-color="#fff"/>
    </linearGradient>
    <linearGradient id="p" x1="400.6" x2="568.429" y1="18.11" y2="377.475" gradientUnits="userSpaceOnUse">
      <stop offset=".135" stop-color="#332929"/>
      <stop offset="1" stop-color="#fff"/>
    </linearGradient>
    <linearGradient id="q" x1="387.272" x2="642.834" y1="0" y2="478.523" gradientUnits="userSpaceOnUse">
      <stop offset=".135" stop-color="#332929"/>
      <stop offset="1" stop-color="#fff"/>
    </linearGradient>
    <linearGradient id="r" x1="984.209" x2="1014.41" y1="198.866" y2="248.689" gradientUnits="userSpaceOnUse">
      <stop offset=".135" stop-color="#332929"/>
      <stop offset="1" stop-color="#fff"/>
    </linearGradient>
    <linearGradient id="s" x1="319.37" x2="429.424" y1="180.825" y2="543.539" gradientUnits="userSpaceOnUse">
      <stop offset=".135" stop-color="#332929"/>
      <stop offset="1" stop-color="#fff"/>
    </linearGradient>
    <linearGradient id="t" x1="616.36" x2="644.935" y1="266.727" y2="373.733" gradientUnits="userSpaceOnUse">
      <stop offset=".135" stop-color="#332929"/>
      <stop offset="1" stop-color="#fff"/>
    </linearGradient>
    <linearGradient id="u" x1="604.686" x2="650.58" y1="266.727" y2="408.139" gradientUnits="userSpaceOnUse">
      <stop offset=".135" stop-color="#332929"/>
      <stop offset="1" stop-color="#fff"/>
    </linearGradient>
    <linearGradient id="v" x1="589.345" x2="653.297" y1="266.727" y2="441.306" gradientUnits="userSpaceOnUse">
      <stop offset=".135" stop-color="#332929"/>
      <stop offset="1" stop-color="#fff"/>
    </linearGradient>
    <linearGradient id="w" x1="859.329" x2="908.202" y1="253.127" y2="471.56" gradientUnits="userSpaceOnUse">
      <stop offset=".135" stop-color="#332929"/>
      <stop offset="1" stop-color="#fff"/>
    </linearGradient>
    <linearGradient id="x" x1="886.4" x2="972.34" y1="216.976" y2="407.599" gradientUnits="userSpaceOnUse">
      <stop offset=".135" stop-color="#332929"/>
      <stop offset="1" stop-color="#fff"/>
    </linearGradient>
    <linearGradient id="y" x1="894.441" x2="1031.83" y1="198.873" y2="430.013" gradientUnits="userSpaceOnUse">
      <stop offset=".135" stop-color="#332929"/>
      <stop offset="1" stop-color="#fff"/>
    </linearGradient>
    <linearGradient id="z" x1="898.979" x2="1086.78" y1="180.825" y2="441.667" gradientUnits="userSpaceOnUse">
      <stop offset=".135" stop-color="#332929"/>
      <stop offset="1" stop-color="#fff"/>
    </linearGradient>
  </defs>
</svg>
