<svg role="img" viewBox="0 0 900 430" xmlns="http://www.w3.org/2000/svg" style="width:100%;height:auto;display:block"><title>One dev instance produces a versioned snapshot that a pipeline promotes out to a Remote Instance at each site, with every site parameterised by its own environment.</title><defs><marker id="arrow" viewBox="0 0 10 10" refX="10" refY="5" markerWidth="10" markerHeight="10" orient="auto" markerUnits="userSpaceOnUse"><path d="M0,0 L10,5 L0,10 z" fill="#9ca3af"/></marker><marker id="arrowSlate" viewBox="0 0 10 10" refX="10" refY="5" markerWidth="10" markerHeight="10" orient="auto" markerUnits="userSpaceOnUse"><path d="M0,0 L10,5 L0,10 z" fill="#334155"/></marker><marker id="arrowOrange" viewBox="0 0 10 10" refX="10" refY="5" markerWidth="10" markerHeight="10" orient="auto" markerUnits="userSpaceOnUse"><path d="M0,0 L10,5 L0,10 z" fill="#ea580c"/></marker><marker id="arrowPurple" viewBox="0 0 10 10" refX="10" refY="5" markerWidth="10" markerHeight="10" orient="auto" markerUnits="userSpaceOnUse"><path d="M0,0 L10,5 L0,10 z" fill="#7c3aed"/></marker></defs><rect x="24" y="30" width="712" height="120" rx="14" fill="#f0fdf4" stroke="#16a34a" stroke-width="1.6" stroke-dasharray="8,5"/>
<rect x="30" y="15" width="11" height="11" rx="2.5" fill="#f0fdf4" stroke="#16a34a" stroke-width="1.4"/>
<text x="47" y="24" font-family="Heebo,Helvetica,Arial,sans-serif" font-size="11" font-weight="700" letter-spacing="0.5" fill="#15803d">Dev · one build</text><rect x="24" y="250" width="712" height="156" rx="14" fill="#f0fdf4" stroke="#16a34a" stroke-width="1.6" stroke-dasharray="8,5"/>
<rect x="30" y="235" width="11" height="11" rx="2.5" fill="#f0fdf4" stroke="#16a34a" stroke-width="1.4"/>
<text x="47" y="244" font-family="Heebo,Helvetica,Arial,sans-serif" font-size="11" font-weight="700" letter-spacing="0.5" fill="#15803d">Fleet · one instance per place, each pointed at its own data</text><path d="M348.0,136.0 C348.0,226.0 175.0,200.0 175.0,290.0" fill="none" stroke="#334155" stroke-width="2" marker-end="url(#arrowSlate)"/><rect x="307.5" y="207.5" width="10" height="8" rx="1.5" fill="#fff" stroke="#334155" stroke-width="1.4"/><path d="M309.5,207.5 v-2.2 a3,3 0 0 1 6,0 v2.2" fill="none" stroke="#334155" stroke-width="1.4"/><path d="M450.0,136.0 C450.0,226.0 417.0,200.0 417.0,290.0" fill="none" stroke="#334155" stroke-width="2" marker-end="url(#arrowSlate)"/><rect x="428.5" y="207.5" width="10" height="8" rx="1.5" fill="#fff" stroke="#334155" stroke-width="1.4"/><path d="M430.5,207.5 v-2.2 a3,3 0 0 1 6,0 v2.2" fill="none" stroke="#334155" stroke-width="1.4"/><rect x="363.9" y="187.5" width="139.2" height="17" rx="4" fill="#ffffff" opacity="0.92"/><text x="433.5" y="199.5" text-anchor="middle" font-family="Heebo,Helvetica,Arial,sans-serif" font-size="11" fill="#6b7280">snapshot · pipeline</text><path d="M552.0,136.0 C552.0,226.0 659.0,200.0 659.0,290.0" fill="none" stroke="#334155" stroke-width="2" marker-end="url(#arrowSlate)"/><rect x="549.5" y="207.5" width="10" height="8" rx="1.5" fill="#fff" stroke="#334155" stroke-width="1.4"/><path d="M551.5,207.5 v-2.2 a3,3 0 0 1 6,0 v2.2" fill="none" stroke="#334155" stroke-width="1.4"/><g>
<rect x="300" y="58" width="300" height="78" rx="11" fill="#eef2ff" stroke="#5048e5" stroke-width="2.5"/>
<rect x="441" y="74" width="18" height="7" rx="1.6" stroke="#5048e5" stroke-width="1.7" fill="none" stroke-linecap="round" stroke-linejoin="round"/><rect x="441" y="83" width="18" height="7" rx="1.6" stroke="#5048e5" stroke-width="1.7" fill="none" stroke-linecap="round" stroke-linejoin="round"/><circle cx="445" cy="77.5" r="0.9" fill="#5048e5"/><circle cx="445" cy="86.5" r="0.9" fill="#5048e5"/>
<text x="450" y="101" text-anchor="middle" font-family="Heebo,Helvetica,Arial,sans-serif" font-size="13.5" font-weight="700" fill="#1f2937">Dev instance</text>
<text x="450" y="116" text-anchor="middle" font-family="Heebo,Helvetica,Arial,sans-serif" font-size="11" fill="#4338ca">build &amp; test once</text>
</g><g>
<rect x="90" y="288" width="170" height="72" rx="11" fill="#eef2ff" stroke="#5048e5" stroke-width="2.5"/>
<rect x="169" y="303" width="12" height="12" rx="2" stroke="#5048e5" stroke-width="1.7" fill="none" stroke-linecap="round" stroke-linejoin="round"/><path d="M172.5,303 v-3 M177.5,303 v-3 M172.5,315 v3 M177.5,315 v3 M169,306.5 h-3 M169,311.5 h-3 M181,306.5 h3 M181,311.5 h3" stroke="#5048e5" stroke-width="1.7" fill="none" stroke-linecap="round" stroke-linejoin="round"/>
<text x="175" y="328" text-anchor="middle" font-family="Heebo,Helvetica,Arial,sans-serif" font-size="13.5" font-weight="700" fill="#1f2937">Remote Instance</text>
<text x="175" y="343" text-anchor="middle" font-family="Heebo,Helvetica,Arial,sans-serif" font-size="11" fill="#4338ca">Site A</text>
</g><g>
<rect x="332" y="288" width="170" height="72" rx="11" fill="#eef2ff" stroke="#5048e5" stroke-width="2.5"/>
<rect x="411" y="303" width="12" height="12" rx="2" stroke="#5048e5" stroke-width="1.7" fill="none" stroke-linecap="round" stroke-linejoin="round"/><path d="M414.5,303 v-3 M419.5,303 v-3 M414.5,315 v3 M419.5,315 v3 M411,306.5 h-3 M411,311.5 h-3 M423,306.5 h3 M423,311.5 h3" stroke="#5048e5" stroke-width="1.7" fill="none" stroke-linecap="round" stroke-linejoin="round"/>
<text x="417" y="328" text-anchor="middle" font-family="Heebo,Helvetica,Arial,sans-serif" font-size="13.5" font-weight="700" fill="#1f2937">Remote Instance</text>
<text x="417" y="343" text-anchor="middle" font-family="Heebo,Helvetica,Arial,sans-serif" font-size="11" fill="#4338ca">Site B</text>
</g><g>
<rect x="574" y="288" width="170" height="72" rx="11" fill="#eef2ff" stroke="#5048e5" stroke-width="2.5"/>
<rect x="653" y="303" width="12" height="12" rx="2" stroke="#5048e5" stroke-width="1.7" fill="none" stroke-linecap="round" stroke-linejoin="round"/><path d="M656.5,303 v-3 M661.5,303 v-3 M656.5,315 v3 M661.5,315 v3 M653,306.5 h-3 M653,311.5 h-3 M665,306.5 h3 M665,311.5 h3" stroke="#5048e5" stroke-width="1.7" fill="none" stroke-linecap="round" stroke-linejoin="round"/>
<text x="659" y="328" text-anchor="middle" font-family="Heebo,Helvetica,Arial,sans-serif" font-size="13.5" font-weight="700" fill="#1f2937">Remote Instance</text>
<text x="659" y="343" text-anchor="middle" font-family="Heebo,Helvetica,Arial,sans-serif" font-size="11" fill="#4338ca">Site C</text>
</g><text x="752" y="90" font-family="Heebo,Helvetica,Arial,sans-serif" font-size="10" font-weight="700" letter-spacing="0.5" fill="#94a3b8">LEGEND</text><rect x="752" y="96" width="16" height="11" rx="2" fill="#f0fdf4" stroke="#16a34a" stroke-width="1.4"/><text x="776" y="104" font-family="Heebo,Helvetica,Arial,sans-serif" font-size="11" fill="#374151">Managed</text><line x1="752" y1="121" x2="768" y2="121" stroke="#334155" stroke-width="2"/><rect x="755" y="118" width="10" height="8" rx="1.5" fill="#fff" stroke="#334155" stroke-width="1.4"/><path d="M757,118 v-2.2 a3,3 0 0 1 6,0 v2.2" fill="none" stroke="#334155" stroke-width="1.4"/><text x="776" y="124" font-family="Heebo,Helvetica,Arial,sans-serif" font-size="11" fill="#374151">Snapshot / pipeline</text><rect x="150" y="372" width="76" height="22" rx="6" fill="#eef2ff" stroke="#5048e5" stroke-width="1.4"/><text x="188" y="387" text-anchor="middle" font-family="Heebo,Helvetica,Arial,sans-serif" font-size="11" font-weight="600" fill="#4338ca">env A</text><rect x="392" y="372" width="76" height="22" rx="6" fill="#eef2ff" stroke="#5048e5" stroke-width="1.4"/><text x="430" y="387" text-anchor="middle" font-family="Heebo,Helvetica,Arial,sans-serif" font-size="11" font-weight="600" fill="#4338ca">env B</text><rect x="634" y="372" width="76" height="22" rx="6" fill="#eef2ff" stroke="#5048e5" stroke-width="1.4"/><text x="672" y="387" text-anchor="middle" font-family="Heebo,Helvetica,Arial,sans-serif" font-size="11" font-weight="600" fill="#4338ca">env C</text></svg>
