<svg role="img" viewBox="0 0 900 320" xmlns="http://www.w3.org/2000/svg" style="width:100%;height:auto;display:block"><title>A subflow is published to the Team Library as an installable package, three apps install it at their own versions, and the Bill of Materials records which version each app runs.</title><defs><marker id="arrow" viewBox="0 0 10 10" refX="10" refY="5" markerWidth="10" markerHeight="10" orient="auto" markerUnits="userSpaceOnUse"><path d="M0,0 L10,5 L0,10 z" fill="#9ca3af"/></marker><marker id="arrowSlate" viewBox="0 0 10 10" refX="10" refY="5" markerWidth="10" markerHeight="10" orient="auto" markerUnits="userSpaceOnUse"><path d="M0,0 L10,5 L0,10 z" fill="#334155"/></marker><marker id="arrowOrange" viewBox="0 0 10 10" refX="10" refY="5" markerWidth="10" markerHeight="10" orient="auto" markerUnits="userSpaceOnUse"><path d="M0,0 L10,5 L0,10 z" fill="#ea580c"/></marker><marker id="arrowPurple" viewBox="0 0 10 10" refX="10" refY="5" markerWidth="10" markerHeight="10" orient="auto" markerUnits="userSpaceOnUse"><path d="M0,0 L10,5 L0,10 z" fill="#7c3aed"/></marker></defs><rect x="24" y="16" width="852" height="292" rx="14" fill="none" stroke="#94a3b8" stroke-width="1.6" stroke-dasharray="8,5"/>
<rect x="30" y="1" width="11" height="11" rx="2.5" fill="#fff" stroke="#94a3b8" stroke-width="1.4"/>
<text x="47" y="10" font-family="Heebo,Helvetica,Arial,sans-serif" font-size="11" font-weight="700" letter-spacing="0.5" fill="#64748b">Team · one versioned library, version-tracked</text><path d="M220.0,116.0 C269.2,116.0 252.8,116.0 302.0,116.0" fill="none" stroke="#334155" stroke-width="2" marker-end="url(#arrowSlate)"/><rect x="257" y="113" width="10" height="8" rx="1.5" fill="#fff" stroke="#334155" stroke-width="1.4"/><path d="M259,113 v-2.2 a3,3 0 0 1 6,0 v2.2" fill="none" stroke="#334155" stroke-width="1.4"/><rect x="202.6" y="93" width="118.8" height="17" rx="4" fill="#ffffff" opacity="0.92"/><text x="262" y="105" text-anchor="middle" font-family="Heebo,Helvetica,Arial,sans-serif" font-size="11" fill="#6b7280">export / publish</text><path d="M484.0,96.8 C574.0,96.8 548.0,52.0 638.0,52.0" fill="none" stroke="#ea580c" stroke-width="2" stroke-dasharray="7,4" marker-end="url(#arrowOrange)"/><path d="M484.0,116.0 C574.0,116.0 548.0,118.0 638.0,118.0" fill="none" stroke="#ea580c" stroke-width="2" stroke-dasharray="7,4" marker-end="url(#arrowOrange)"/><rect x="535.2" y="108" width="57.6" height="17" rx="4" fill="#ffffff" opacity="0.92"/><text x="564" y="120" text-anchor="middle" font-family="Heebo,Helvetica,Arial,sans-serif" font-size="11" fill="#6b7280">install</text><path d="M484.0,135.2 C574.0,135.2 548.0,184.0 638.0,184.0" fill="none" stroke="#ea580c" stroke-width="2" stroke-dasharray="7,4" marker-end="url(#arrowOrange)"/><path d="M736.0,78.0 C736.0,168.0 660.4,152.0 660.4,242.0" fill="none" stroke="#9ca3af" stroke-width="2" marker-end="url(#arrow)"/><path d="M736.0,144.0 C736.0,202.8 736.0,183.2 736.0,242.0" fill="none" stroke="#9ca3af" stroke-width="2" marker-end="url(#arrow)"/><rect x="697" y="185" width="78" height="17" rx="4" fill="#ffffff" opacity="0.92"/><text x="736" y="197" text-anchor="middle" font-family="Heebo,Helvetica,Arial,sans-serif" font-size="11" fill="#6b7280">tracked in</text><path d="M736.0,210.0 C736.0,236.0 811.6,216.0 811.6,242.0" fill="none" stroke="#9ca3af" stroke-width="2" marker-end="url(#arrow)"/><g>
<rect x="44" y="84" width="176" height="64" rx="11" fill="#eef2ff" stroke="#5048e5" stroke-width="2.5"/>
<rect x="124" y="95" width="16" height="14" rx="1.5" stroke="#5048e5" stroke-width="1.7" fill="none" stroke-linecap="round" stroke-linejoin="round"/><path d="M124,100 h16 M132,95 v14" stroke="#5048e5" stroke-width="1.7" fill="none" stroke-linecap="round" stroke-linejoin="round"/>
<text x="132" y="120" text-anchor="middle" font-family="Heebo,Helvetica,Arial,sans-serif" font-size="13.5" font-weight="700" fill="#1f2937">Subflow</text>
<text x="132" y="135" text-anchor="middle" font-family="Heebo,Helvetica,Arial,sans-serif" font-size="11" fill="#4338ca">reusable block</text>
</g><g>
<rect x="300" y="84" width="184" height="64" rx="11" fill="#f3f4f6" stroke="#374151" stroke-width="2.5"/>
<path d="M387,95 V107" stroke="#374151" stroke-width="1.7" fill="none" stroke-linecap="round" stroke-linejoin="round"/><path d="M387,100 H394 a3,3 0 0 1 3,3 V104" fill="none" stroke="#374151" stroke-width="1.7" stroke-linecap="round" stroke-linejoin="round"/><circle cx="387" cy="95" r="2" fill="#374151"/><circle cx="387" cy="107" r="2" fill="#374151"/><circle cx="397" cy="107" r="2" fill="#374151"/>
<text x="392" y="120" text-anchor="middle" font-family="Heebo,Helvetica,Arial,sans-serif" font-size="13.5" font-weight="700" fill="#1f2937">Team Library</text>
<text x="392" y="135" text-anchor="middle" font-family="Heebo,Helvetica,Arial,sans-serif" font-size="11" fill="#6b7280">installable node</text>
</g><g>
<rect x="636" y="26" width="200" height="52" rx="11" fill="#eef2ff" stroke="#5048e5" stroke-width="2.5"/>
<rect x="728" y="31" width="16" height="14" rx="2" stroke="#5048e5" stroke-width="1.7" fill="none" stroke-linecap="round" stroke-linejoin="round"/><path d="M728,35 h16" stroke="#5048e5" stroke-width="1.7" fill="none" stroke-linecap="round" stroke-linejoin="round"/><circle cx="731" cy="33" r="0.9" fill="#5048e5"/>
<text x="736" y="57" text-anchor="middle" font-family="Heebo,Helvetica,Arial,sans-serif" font-size="13.5" font-weight="700" fill="#1f2937">Instance</text>
<text x="736" y="72" text-anchor="middle" font-family="Heebo,Helvetica,Arial,sans-serif" font-size="11" fill="#4338ca">App A · v1.2</text>
</g><g>
<rect x="636" y="92" width="200" height="52" rx="11" fill="#eef2ff" stroke="#5048e5" stroke-width="2.5"/>
<rect x="728" y="97" width="16" height="14" rx="2" stroke="#5048e5" stroke-width="1.7" fill="none" stroke-linecap="round" stroke-linejoin="round"/><path d="M728,101 h16" stroke="#5048e5" stroke-width="1.7" fill="none" stroke-linecap="round" stroke-linejoin="round"/><circle cx="731" cy="99" r="0.9" fill="#5048e5"/>
<text x="736" y="123" text-anchor="middle" font-family="Heebo,Helvetica,Arial,sans-serif" font-size="13.5" font-weight="700" fill="#1f2937">Instance</text>
<text x="736" y="138" text-anchor="middle" font-family="Heebo,Helvetica,Arial,sans-serif" font-size="11" fill="#4338ca">App B · v1.2</text>
</g><g>
<rect x="636" y="158" width="200" height="52" rx="11" fill="#eef2ff" stroke="#5048e5" stroke-width="2.5"/>
<rect x="728" y="163" width="16" height="14" rx="2" stroke="#5048e5" stroke-width="1.7" fill="none" stroke-linecap="round" stroke-linejoin="round"/><path d="M728,167 h16" stroke="#5048e5" stroke-width="1.7" fill="none" stroke-linecap="round" stroke-linejoin="round"/><circle cx="731" cy="165" r="0.9" fill="#5048e5"/>
<text x="736" y="189" text-anchor="middle" font-family="Heebo,Helvetica,Arial,sans-serif" font-size="13.5" font-weight="700" fill="#1f2937">Instance</text>
<text x="736" y="204" text-anchor="middle" font-family="Heebo,Helvetica,Arial,sans-serif" font-size="11" fill="#4338ca">App C · v1.1</text>
</g><g>
<rect x="610" y="240" width="252" height="60" rx="11" fill="#f3f4f6" stroke="#374151" stroke-width="2.5"/>
<path d="M728,248 v14 h16" stroke="#374151" stroke-width="1.7" fill="none" stroke-linecap="round" stroke-linejoin="round"/><rect x="731.5" y="254" width="3.2" height="8" fill="#374151"/><rect x="736.5" y="250" width="3.2" height="12" fill="#374151"/><rect x="741.5" y="246" width="3.2" height="16" fill="#374151"/>
<text x="736" y="274" text-anchor="middle" font-family="Heebo,Helvetica,Arial,sans-serif" font-size="13.5" font-weight="700" fill="#1f2937">Bill of Materials</text>
<text x="736" y="289" text-anchor="middle" font-family="Heebo,Helvetica,Arial,sans-serif" font-size="11" fill="#6b7280">which version each app runs</text>
</g><text x="44" y="238" font-family="Heebo,Helvetica,Arial,sans-serif" font-size="10" font-weight="700" letter-spacing="0.5" fill="#94a3b8">LEGEND</text><line x1="44" y1="249" x2="60" y2="249" stroke="#ea580c" stroke-width="2" stroke-dasharray="7,4"/><text x="68" y="252" font-family="Heebo,Helvetica,Arial,sans-serif" font-size="11" fill="#374151">install</text><line x1="44" y1="269" x2="60" y2="269" stroke="#9ca3af" stroke-width="2"/><text x="68" y="272" font-family="Heebo,Helvetica,Arial,sans-serif" font-size="11" fill="#374151">version-tracked</text></svg>
