<svg role="img" viewBox="0 0 880 230" xmlns="http://www.w3.org/2000/svg" style="width:100%;height:auto;display:block"><title>Users opening an app on a Hosted Instance in their browser, with the instance reading and writing records in FlowFuse Tables.</title><defs><marker id="arrow" viewBox="0 0 10 10" refX="10" refY="5" markerWidth="10" markerHeight="10" orient="auto" markerUnits="userSpaceOnUse"><path d="M0,0 L10,5 L0,10 z" fill="#9ca3af"/></marker><marker id="arrowSlate" viewBox="0 0 10 10" refX="10" refY="5" markerWidth="10" markerHeight="10" orient="auto" markerUnits="userSpaceOnUse"><path d="M0,0 L10,5 L0,10 z" fill="#334155"/></marker><marker id="arrowOrange" viewBox="0 0 10 10" refX="10" refY="5" markerWidth="10" markerHeight="10" orient="auto" markerUnits="userSpaceOnUse"><path d="M0,0 L10,5 L0,10 z" fill="#ea580c"/></marker><marker id="arrowPurple" viewBox="0 0 10 10" refX="10" refY="5" markerWidth="10" markerHeight="10" orient="auto" markerUnits="userSpaceOnUse"><path d="M0,0 L10,5 L0,10 z" fill="#7c3aed"/></marker><marker id="arrowRed" viewBox="0 0 10 10" refX="10" refY="5" markerWidth="10" markerHeight="10" orient="auto" markerUnits="userSpaceOnUse"><path d="M0,0 L10,5 L0,10 z" fill="#dc2626"/></marker></defs><path d="M210.0,100.4 C277.2,100.4 254.8,113.0 322.0,113.0" fill="none" stroke="#334155" stroke-width="2" marker-end="url(#arrowSlate)"/><rect x="270" y="110" width="10" height="8" rx="1.5" fill="#fff" stroke="#334155" stroke-width="1.4"/><path d="M272,110 v-2.2 a3,3 0 0 1 6,0 v2.2" fill="none" stroke="#334155" stroke-width="1.4"/><rect x="253" y="90" width="44" height="17" rx="4" fill="#ffffff" opacity="0.92"/><text x="275" y="102" text-anchor="middle" font-family="Heebo,Helvetica,Arial,sans-serif" font-size="11" fill="#6b7280">opens</text><path d="M320.0,128.5 C252.8,128.5 275.2,113.0 208.0,113.0" fill="none" stroke="#9ca3af" stroke-width="2" marker-end="url(#arrow)"/><path d="M530.0,97.5 C620.0,97.5 592.0,113.0 682.0,113.0" fill="none" stroke="#9ca3af" stroke-width="2" marker-end="url(#arrow)"/><rect x="542.4" y="104" width="105.2" height="17" rx="4" fill="#ffffff" opacity="0.92"/><text x="595" y="116" text-anchor="middle" font-family="Heebo,Helvetica,Arial,sans-serif" font-size="11" fill="#6b7280">reads · writes</text><path d="M680.0,125.6 C590.0,125.6 618.0,113.0 528.0,113.0" fill="none" stroke="#9ca3af" stroke-width="2" marker-end="url(#arrow)"/><g>
<rect x="40" y="78" width="170" height="70" rx="11" fill="#f3f4f6" stroke="#374151" stroke-width="2.5"/>
<circle cx="125" cy="94" r="3" stroke="#374151" stroke-width="1.7" fill="none" stroke-linecap="round" stroke-linejoin="round"/><path d="M119,104 a6,6 0 0 1 12,0" stroke="#374151" stroke-width="1.7" fill="none" stroke-linecap="round" stroke-linejoin="round"/>
<text x="125" y="117" text-anchor="middle" font-family="Heebo,Helvetica,Arial,sans-serif" font-size="13.5" font-weight="700" fill="#1f2937">Users</text>
<text x="125" y="132" text-anchor="middle" font-family="Heebo,Helvetica,Arial,sans-serif" font-size="11" fill="#6b7280">browser</text>
</g><g>
<rect x="320" y="70" width="210" height="86" rx="11" fill="#eef2ff" stroke="#5048e5" stroke-width="2.5"/>
<rect x="417" y="91" width="16" height="14" rx="2" stroke="#5048e5" stroke-width="1.7" fill="none" stroke-linecap="round" stroke-linejoin="round"/><path d="M417,95 h16" stroke="#5048e5" stroke-width="1.7" fill="none" stroke-linecap="round" stroke-linejoin="round"/><circle cx="420" cy="93" r="0.9" fill="#5048e5"/>
<text x="425" y="117" text-anchor="middle" font-family="Heebo,Helvetica,Arial,sans-serif" font-size="13.5" font-weight="700" fill="#1f2937">Hosted Instance</text>
<text x="425" y="132" text-anchor="middle" font-family="Heebo,Helvetica,Arial,sans-serif" font-size="11" fill="#4338ca">data-driven app</text>
</g><g>
<rect x="680" y="78" width="170" height="70" fill="none" stroke="none"/>
<path d="M680,87 L680,139 A85,9 0 0 0 850,139 L850,87" fill="#dcfce7" stroke="#16a34a" stroke-width="2.5"/>
<ellipse cx="765" cy="87" rx="85" ry="9" fill="#dcfce7" stroke="#16a34a" stroke-width="2.5"/>
<text x="765" y="111" text-anchor="middle" font-family="Heebo,Helvetica,Arial,sans-serif" font-size="13" font-weight="700" fill="#14532d">FlowFuse Tables</text>
<text x="765" y="126" text-anchor="middle" font-family="Heebo,Helvetica,Arial,sans-serif" font-size="10" fill="#16a34a">records</text>
</g></svg>
