<svg width="80" height="81" viewBox="0 0 80 81" fill="none" xmlns="http://www.w3.org/2000/svg">
<path d="M76.7002 28.7162V70.042C76.7002 74.4355 73.1357 78 68.7422 78H10.8692C6.47571 78 2.91125 74.4355 2.91125 70.042V12.169C2.91125 7.77552 6.47571 4.21106 10.8692 4.21106H52.1572" stroke="#DA3D0B" stroke-width="4.62917" stroke-miterlimit="10" stroke-linecap="round"/>
<path d="M58.8064 52.6195V32.4911C58.8064 31.7336 58.4024 31.035 57.7459 30.652L40.3149 20.5857C39.6584 20.2069 38.8504 20.2069 38.1939 20.5857L20.763 30.652C20.1065 31.0308 19.7025 31.7294 19.7025 32.4911V52.6195C19.7025 53.377 20.1065 54.0756 20.763 54.4586L38.1939 64.5249C38.8504 64.9037 39.6584 64.9037 40.3149 64.5249L57.7459 54.4586C58.4024 54.0798 58.8064 53.3813 58.8064 52.6195Z" fill="#DA3D0B"/>
<path d="M50.941 45.3222H58.7432V43.5926H50.941C49.5607 43.5926 48.3739 44.7457 48.3739 46.1302V46.4711C43.6816 46.4374 42.2802 45.2212 40.5338 43.6936C39.0819 42.4227 37.2639 41.0382 33.6111 40.4574C34.2928 39.7757 34.701 38.9971 35.0672 38.3364C35.4585 37.6252 35.8162 37.0613 36.3844 36.6699C36.8262 36.3669 37.5795 36.1817 38.5601 36.127V36.4469C38.5601 37.8272 39.6332 38.9592 41.0135 38.9592H51.0209C52.4013 38.9592 53.6427 37.8272 53.6427 36.4469V33.9892C53.6427 32.6089 52.4097 31.4937 51.0252 31.4937H41.0177C39.6374 31.4937 38.5559 32.6089 38.5559 33.9892V34.4395C37.2639 34.5026 36.1613 34.7551 35.4164 35.2685C34.4906 35.904 33.9856 36.7667 33.5732 37.5158C33.1608 38.2649 32.8199 38.9129 32.3275 39.3632C31.9067 39.7504 31.3175 40.0113 30.3622 40.1334C30.2402 38.8624 29.1334 37.945 27.833 37.9366H19.7909V39.5105H27.833C28.3001 39.5105 28.6452 39.8977 28.6452 40.3648V42.8225C28.6452 43.2896 28.3001 43.5968 27.833 43.5968H19.7909V45.3265H27.833C29.2134 45.3265 30.4085 44.2028 30.4085 42.8225V41.8882C36.0435 41.9766 37.6006 43.399 39.4144 44.9814C41.1524 46.5006 43.2944 48.0997 48.3739 48.1671V48.5921C48.3739 49.9725 49.5564 51.0624 50.941 51.0624H58.7432V49.3328H50.941C50.4739 49.3328 50.1035 49.0129 50.1035 48.5458V46.1302C50.1035 45.6631 50.4739 45.3222 50.941 45.3222ZM40.1677 33.9808C40.1677 33.5137 40.5506 33.2149 41.0177 33.2149H51.0252C51.4923 33.2149 51.8332 33.5137 51.8332 33.9808V36.4384C51.8332 36.9056 51.4881 37.2212 51.0209 37.2212H41.0135C40.5464 37.2212 40.1677 36.9056 40.1677 36.4384V33.9808Z" fill="white"/>
<path d="M69.4913 10.5909C68.5865 9.68611 67.3577 9.17691 66.0784 9.17691C64.799 9.17691 63.5702 9.68611 62.6654 10.5909L57.8342 15.4221C57.3713 15.8682 57.0052 16.3984 56.7527 16.9918C56.5002 17.581 56.3655 18.2164 56.3613 18.8561C56.3571 19.4957 56.4791 20.1354 56.719 20.7288C56.9631 21.3222 57.3208 21.8608 57.7753 22.3153C58.2298 22.7698 58.7685 23.1275 59.3619 23.3716C59.9552 23.6157 60.5907 23.7377 61.2346 23.7293C61.8742 23.7251 62.5097 23.5905 63.0989 23.338C63.688 23.0855 64.2225 22.7151 64.6686 22.2564L65.9984 20.9266M65.0768 15.0054C65.9816 15.9102 67.2104 16.4195 68.4897 16.4195C69.7691 16.4195 70.9979 15.9102 71.9027 15.0054L76.7339 10.1743C77.6134 9.26528 78.1016 8.04486 78.0889 6.77815C78.0763 5.51145 77.5713 4.29945 76.6749 3.40307C75.7786 2.50669 74.5666 1.99749 73.2999 1.98907C72.0332 1.97644 70.8127 2.46461 69.9037 3.34415L68.5739 4.67399" stroke="#DA3D0B" stroke-width="3.36667" stroke-linecap="round" stroke-linejoin="round"/>
</svg>
